<?xml version="1.0" encoding="UTF-8" standalone="no"?>
<svg
   xmlns:dc="http://purl.org/dc/elements/1.1/"
   xmlns:cc="http://creativecommons.org/ns#"
   xmlns:rdf="http://www.w3.org/1999/02/22-rdf-syntax-ns#"
   xmlns:svg="http://www.w3.org/2000/svg"
   xmlns="http://www.w3.org/2000/svg"
   xmlns:sodipodi="http://sodipodi.sourceforge.net/DTD/sodipodi-0.dtd"
   xmlns:inkscape="http://www.inkscape.org/namespaces/inkscape"
   viewBox="0 0 681.40002 439.72849"
   id="svg2"
   version="1.1"
   inkscape:version="0.91 r"
   sodipodi:docname="rebase-and-merge.svg"
   width="681.40002"
   height="439.72849"
   inkscape:export-filename="/home/mbexegc2/Dropbox (The University of Manchester)/rit-training/course-material/git/git-course/fig/slideshow/rebase-and-merge.png"
   inkscape:export-xdpi="300"
   inkscape:export-ydpi="300">
  <metadata
     id="metadata136">
    <rdf:RDF>
      <cc:Work
         rdf:about="">
        <dc:format>image/svg+xml</dc:format>
        <dc:type
           rdf:resource="http://purl.org/dc/dcmitype/StillImage" />
        <dc:title></dc:title>
      </cc:Work>
    </rdf:RDF>
  </metadata>
  <defs
     id="defs134" />
  <sodipodi:namedview
     pagecolor="#ffffff"
     bordercolor="#666666"
     borderopacity="1"
     objecttolerance="10"
     gridtolerance="10"
     guidetolerance="10"
     inkscape:pageopacity="1"
     inkscape:pageshadow="2"
     inkscape:window-width="1920"
     inkscape:window-height="1028"
     id="namedview132"
     showgrid="false"
     inkscape:zoom="1.0134192"
     inkscape:cx="236.2364"
     inkscape:cy="250.39176"
     inkscape:window-x="0"
     inkscape:window-y="0"
     inkscape:window-maximized="1"
     inkscape:current-layer="svg2"
     fit-margin-top="0"
     fit-margin-left="0"
     fit-margin-right="0"
     fit-margin-bottom="0" />
  <style
     id="style4">.st0{display:none;} .st1{display:inline;} .st2{fill:#FFFFFF;} .st3{fill:none;stroke:#9882CE;stroke-width:4;stroke-miterlimit:10;} .st4{fill:#FFFFFF;stroke:#404040;stroke-width:4;stroke-linejoin:round;stroke-miterlimit:10;} .st5{fill:#4ED1A1;stroke:#404040;stroke-width:4;stroke-linecap:round;stroke-linejoin:round;stroke-miterlimit:10;} .st6{fill:#B3E3FF;stroke:#404040;stroke-width:4;stroke-miterlimit:10;} .st7{fill:#FFFFFF;stroke:#6693ED;stroke-width:4;stroke-miterlimit:10;} .st8{fill:#FFFFFF;stroke:#404040;stroke-width:4;stroke-miterlimit:10;} .st9{fill:#404040;} .st10{fill:#404040;stroke:#404040;stroke-width:4;stroke-linejoin:round;stroke-miterlimit:10;} .st11{fill:none;stroke:#404040;stroke-width:4;stroke-linecap:round;stroke-linejoin:round;stroke-miterlimit:10;} .st12{fill:#999999;} .st13{fill:#B18BE8;stroke:#404040;stroke-width:4;stroke-linecap:round;stroke-linejoin:round;stroke-miterlimit:10;} .st14{fill:none;stroke:#404040;stroke-width:4;stroke-miterlimit:10;} .st15{fill:#4ED1A1;stroke:#404040;stroke-width:4;stroke-miterlimit:10;} .st16{fill:#B3E3FF;stroke:#404040;stroke-width:4;stroke-linejoin:round;stroke-miterlimit:10;} .st17{fill:#FFFFFF;stroke:#404040;stroke-width:4;stroke-linecap:round;stroke-linejoin:round;stroke-miterlimit:10;} .st18{fill:none;stroke:#CCCCCC;stroke-width:4;stroke-linecap:round;stroke-linejoin:round;stroke-miterlimit:10;} .st19{fill:#FFFFFF;stroke:#CCCCCC;stroke-width:4;stroke-linecap:round;stroke-linejoin:round;stroke-miterlimit:10;} .st20{fill:#59AFE1;stroke:#404040;stroke-width:4;stroke-linejoin:round;stroke-miterlimit:10;} .st21{fill:none;stroke:#CCCCCC;stroke-linecap:round;stroke-linejoin:round;stroke-miterlimit:10;}</style>
  <path
     class="st9"
     d="m 283,426 c 2,0 3.2,1.2 3.2,2.9 0,1.1 -0.7,2 -1.6,2.3 1.2,0.3 1.9,1.4 1.9,2.6 0,1.7 -1.3,2.9 -3.3,2.9 l -3.7,0 0,-10.6 3.5,0 z m -0.1,4.7 c 1.2,0 1.9,-0.7 1.9,-1.7 0,-1 -0.7,-1.7 -1.9,-1.7 l -1.8,0 0,3.4 1.8,0 z m 0.2,4.7 c 1.2,0 2,-0.7 2,-1.7 0,-1 -0.6,-1.7 -1.9,-1.7 l -2.1,0 0,3.4 2,0 z m 10,-4.5 -0.6,0 c -1.2,0 -2,0.6 -2,2.2 l 0,3.6 -1.4,0 0,-7.2 1.4,0 0,1.3 c 0.5,-1.1 1.4,-1.4 2.2,-1.4 l 0.5,0 0,1.5 z m 4,1.7 1.9,-0.3 c 0.4,-0.1 0.6,-0.3 0.6,-0.5 0,-0.7 -0.5,-1.3 -1.6,-1.3 -1,0 -1.5,0.6 -1.6,1.5 l -1.4,-0.3 c 0.2,-1.4 1.4,-2.3 3,-2.3 2.2,0 3,1.2 3,2.6 l 0,3.6 c 0,0.6 0.1,1 0.1,1.2 l -1.4,0 c 0,-0.2 -0.1,-0.5 -0.1,-1 -0.3,0.5 -1,1.2 -2.3,1.2 -1.5,0 -2.4,-1 -2.4,-2.2 0,-1.3 1,-2.1 2.2,-2.2 z m 2.5,1 0,-0.3 -2.2,0.3 c -0.6,0.1 -1.1,0.4 -1.1,1.1 0,0.5 0.4,1 1.2,1 1.2,0 2.1,-0.5 2.1,-2.1 z m 5.8,3.1 -1.4,0 0,-7.2 1.4,0 0,1 c 0.5,-0.9 1.4,-1.2 2.2,-1.2 1.7,0 2.6,1.2 2.6,2.8 l 0,4.6 -1.5,0 0,-4.3 c 0,-1 -0.4,-1.8 -1.7,-1.8 -1.1,0 -1.7,0.9 -1.7,2 l 0,4.1 z m 12.8,-1.1 c -0.3,0.7 -1.1,1.3 -2.2,1.3 -2.1,0 -3.4,-1.7 -3.4,-3.8 0,-2 1.4,-3.8 3.4,-3.8 1.3,0 2,0.6 2.2,1.2 l 0,-4.7 1.4,0 0,9.5 c 0,0.7 0.1,1.2 0.1,1.3 l -1.4,0 c 0,-0.2 -0.1,-0.5 -0.1,-1 z m -2.1,0 c 1.3,0 2.1,-1.1 2.1,-2.6 0,-1.5 -0.8,-2.5 -2.1,-2.5 -1.3,0 -2.1,1.1 -2.1,2.5 0,1.4 0.8,2.6 2.1,2.6 z m 18.5,1.1 -5.7,-8.7 0,8.7 -1.5,0 0,-10.6 2,0 5.3,8.2 0,-8.2 1.5,0 0,10.6 -1.6,0 z m 11.1,-2.1 c -0.4,1.3 -1.6,2.3 -3.2,2.3 -1.9,0 -3.6,-1.4 -3.6,-3.9 0,-2.3 1.6,-3.8 3.4,-3.8 2.2,0 3.5,1.5 3.5,3.8 l 0,0.4 -5.4,0 c 0,1.3 1,2.2 2.2,2.2 1.2,0 1.8,-0.6 2,-1.5 l 1.1,0.5 z m -1.4,-2.3 c 0,-1 -0.7,-1.8 -2,-1.8 -1.2,0 -1.9,0.9 -2,1.8 l 4,0 z m 9.4,-2.8 1.9,5.4 1.6,-5.4 1.5,0 -2.3,7.2 -1.5,0 -1.9,-5.5 -1.9,5.5 -1.5,0 -2.4,-7.2 1.5,0 1.6,5.4 1.9,-5.4 1.5,0 z m 11.1,1.9 c 0,-3.6 2.6,-5.5 5.3,-5.5 2.4,0 4.1,1.3 4.7,3.4 l -1.4,0.5 c -0.4,-1.6 -1.6,-2.5 -3.3,-2.5 -1.9,0 -3.8,1.4 -3.8,4.2 0,2.8 1.8,4.2 3.8,4.2 1.8,0 3,-1.1 3.4,-2.5 l 1.3,0.5 c -0.6,2 -2.2,3.4 -4.7,3.4 -2.7,-0.2 -5.3,-2.2 -5.3,-5.7 z m 19.1,1.7 c 0,2.2 -1.5,3.8 -3.7,3.8 -2.2,0 -3.7,-1.6 -3.7,-3.8 0,-2.2 1.5,-3.8 3.7,-3.8 2.2,0 3.7,1.6 3.7,3.8 z m -1.5,0 c 0,-1.7 -1.1,-2.6 -2.2,-2.6 -1.1,0 -2.2,0.9 -2.2,2.6 0,1.7 1,2.6 2.2,2.6 1.2,0 2.2,-1 2.2,-2.6 z m 4,3.6 0,-7.2 1.3,0 0,1 c 0.4,-0.8 1.4,-1.2 2.2,-1.2 0.9,0 1.8,0.4 2.2,1.4 0.6,-1 1.5,-1.4 2.4,-1.4 1.3,0 2.5,0.9 2.5,2.7 l 0,4.7 -1.4,0 0,-4.5 c 0,-0.9 -0.5,-1.6 -1.5,-1.6 -1,0 -1.7,0.8 -1.7,1.8 l 0,4.4 -1.4,0 0,-4.5 c 0,-0.9 -0.4,-1.6 -1.5,-1.6 -1,0 -1.7,0.8 -1.7,1.8 l 0,4.3 -1.4,0 z m 13.6,0 0,-7.2 1.3,0 0,1 c 0.4,-0.8 1.4,-1.2 2.2,-1.2 0.9,0 1.8,0.4 2.2,1.4 0.6,-1 1.5,-1.4 2.4,-1.4 1.3,0 2.5,0.9 2.5,2.7 l 0,4.7 -1.4,0 0,-4.5 c 0,-0.9 -0.5,-1.6 -1.5,-1.6 -1,0 -1.7,0.8 -1.7,1.8 l 0,4.4 -1.4,0 0,-4.5 c 0,-0.9 -0.4,-1.6 -1.5,-1.6 -1,0 -1.7,0.8 -1.7,1.8 l 0,4.3 -1.4,0 z m 14.3,-11 c 0.6,0 1,0.4 1,1 0,0.6 -0.4,1 -1,1 -0.6,0 -1,-0.5 -1,-1 0,-0.5 0.4,-1 1,-1 z m -0.7,11 0,-7.2 1.4,0 0,7.2 -1.4,0 z m 6.4,-7.2 1.6,0 0,1.3 -1.6,0 0,3.8 c 0,0.7 0.3,1 1,1 0.2,0 0.4,0 0.6,-0.1 l 0,1.2 c -0.1,0 -0.5,0.1 -1,0.1 -1.2,0 -2,-0.8 -2,-2.1 l 0,-4 -1.4,0 0,-1.3 0.4,0 c 0.8,0 1.1,-0.5 1.1,-1.1 l 0,-1.2 1.3,0 0,2.4 z m 4.9,4.9 c 0.1,0.8 0.7,1.3 1.7,1.3 0.8,0 1.2,-0.4 1.2,-1 0,-0.5 -0.3,-0.8 -0.9,-0.9 l -1.2,-0.3 c -1.1,-0.2 -1.8,-1 -1.8,-2 0,-1.2 1.2,-2.3 2.6,-2.3 2,0 2.6,1.3 2.7,1.9 l -1.2,0.5 c -0.1,-0.4 -0.4,-1.2 -1.5,-1.2 -0.7,0 -1.2,0.5 -1.2,1 0,0.4 0.3,0.8 0.8,0.9 l 1.2,0.3 c 1.3,0.3 2,1.1 2,2.1 0,1 -0.9,2.2 -2.6,2.2 -2,0 -2.8,-1.3 -2.9,-2.1 l 1.1,-0.4 z"
     id="path8"
     inkscape:connector-curvature="0"
     style="fill:#404040" />
  <path
     class="st17"
     d="m 250.8,431.2 13,0 m -11.1,-4.6 9.2,9.2 m 0,-9.2 -9.2,9.2 m 4.6,-11.1 0,13"
     id="path10"
     inkscape:connector-curvature="0"
     style="fill:#ffffff;stroke:#404040;stroke-width:4;stroke-linecap:round;stroke-linejoin:round;stroke-miterlimit:10" />
  <path
     class="st9"
     d="m 276.2,6.6 -1.6,0 0,4.3 -1.5,0 0,-10.6 4,0 c 2,0 3.3,1.4 3.3,3.2 0,1.5 -1,2.7 -2.6,3 l 2.5,4.5 -1.7,0 z m 0.7,-1.4 c 1.2,0 2,-0.7 2,-1.8 0,-1.1 -0.8,-1.8 -2,-1.8 l -2.2,0 0,3.6 z M 289,8.9 c -0.4,1.3 -1.6,2.3 -3.2,2.3 -1.9,0 -3.6,-1.4 -3.6,-3.9 0,-2.3 1.6,-3.8 3.4,-3.8 2.2,0 3.5,1.5 3.5,3.8 l 0,0.5 -5.4,0 c 0,1.3 1,2.2 2.2,2.2 1.2,0 1.8,-0.6 2,-1.5 z m -1.4,-2.3 c 0,-1 -0.7,-1.8 -2,-1.8 -1.2,0 -1.9,0.9 -2,1.8 z m 4,4.3 0,-10.9 1.4,0 0,4.7 c 0.3,-0.6 1.2,-1.2 2.4,-1.2 2.2,0 3.3,1.7 3.3,3.8 0,2.1 -1.2,3.8 -3.4,3.8 -1.1,0 -1.9,-0.5 -2.3,-1.2 l 0,1 z m 3.5,-6.2 c -1.2,0 -2.1,1 -2.1,2.5 0,1.6 0.9,2.6 2.1,2.6 1.3,0 2.1,-1 2.1,-2.6 0.1,-1.5 -0.8,-2.5 -2.1,-2.5 z m 7.9,2.1 1.9,-0.3 c 0.4,-0.1 0.6,-0.3 0.6,-0.5 0,-0.7 -0.5,-1.3 -1.6,-1.3 -1,0 -1.5,0.6 -1.6,1.5 l -1.4,-0.3 c 0.2,-1.4 1.4,-2.3 3,-2.3 2.2,0 3,1.2 3,2.6 l 0,3.6 c 0,0.6 0.1,1 0.1,1.2 l -1.4,0 c 0,-0.2 -0.1,-0.4 -0.1,-1 -0.3,0.5 -1,1.2 -2.3,1.2 -1.5,0 -2.4,-1 -2.4,-2.2 0,-1.3 0.9,-2 2.2,-2.2 z m 2.5,1 0,-0.3 -2.2,0.3 c -0.6,0.1 -1,0.4 -1,1.1 0,0.5 0.4,1.1 1.2,1.1 1.1,0 2,-0.6 2,-2.2 z m 4.9,0.8 c 0.1,0.8 0.7,1.3 1.7,1.3 0.8,0 1.2,-0.4 1.2,-1 0,-0.5 -0.3,-0.8 -0.9,-0.9 l -1.2,-0.3 c -1.1,-0.2 -1.8,-1 -1.8,-2 0,-1.2 1.2,-2.3 2.6,-2.3 2,0 2.6,1.3 2.7,1.9 l -1.2,0.5 c -0.1,-0.4 -0.4,-1.2 -1.5,-1.2 -0.7,0 -1.2,0.5 -1.2,1 0,0.4 0.3,0.8 0.8,0.9 l 1.2,0.3 c 1.3,0.3 2,1.1 2,2.1 0,1 -0.9,2.2 -2.6,2.2 -2,0 -2.8,-1.3 -2.9,-2.1 z m 13.2,0.3 c -0.4,1.3 -1.6,2.3 -3.2,2.3 -1.9,0 -3.6,-1.4 -3.6,-3.9 0,-2.3 1.6,-3.8 3.4,-3.8 2.2,0 3.5,1.5 3.5,3.8 l 0,0.5 -5.4,0 c 0,1.3 1,2.2 2.2,2.2 1.2,0 1.8,-0.6 2,-1.5 z m -1.4,-2.3 c 0,-1 -0.7,-1.8 -2,-1.8 -1.2,0 -1.9,0.9 -2,1.8 z m 10.2,0.2 1.9,-0.3 c 0.4,-0.1 0.6,-0.3 0.6,-0.5 0,-0.7 -0.5,-1.3 -1.6,-1.3 -1,0 -1.5,0.6 -1.6,1.5 l -1.4,-0.3 c 0.2,-1.4 1.4,-2.3 3,-2.3 2.2,0 3,1.2 3,2.6 l 0,3.6 c 0,0.6 0.1,1 0.1,1.2 l -1.4,0 c 0,-0.2 -0.1,-0.4 -0.1,-1 -0.3,0.5 -1,1.2 -2.3,1.2 -1.5,0 -2.4,-1 -2.4,-2.2 0,-1.3 1,-2 2.2,-2.2 z m 2.5,1 0,-0.3 -2.2,0.3 c -0.6,0.1 -1.1,0.4 -1.1,1.1 0,0.5 0.4,1.1 1.2,1.1 1.2,0 2.1,-0.6 2.1,-2.2 z m 5.8,3.1 -1.4,0 0,-7.2 1.4,0 0,1 c 0.5,-0.9 1.4,-1.2 2.2,-1.2 1.7,0 2.6,1.2 2.6,2.8 l 0,4.6 -1.4,0 0,-4.3 c 0,-1 -0.4,-1.8 -1.7,-1.8 -1.1,0 -1.7,0.9 -1.7,2 z m 12.8,-1.1 c -0.3,0.7 -1.1,1.3 -2.2,1.3 -2.1,0 -3.4,-1.7 -3.4,-3.8 0,-2 1.4,-3.8 3.4,-3.8 1.3,0 2,0.6 2.2,1.2 l 0,-4.7 1.4,0 0,9.5 c 0,0.7 0.1,1.2 0.1,1.3 l -1.4,0 c 0,-0.2 -0.1,-0.5 -0.1,-1 z m -2.1,0.1 c 1.3,0 2.1,-1.1 2.1,-2.6 0,-1.5 -0.8,-2.5 -2.1,-2.5 -1.3,0 -2.1,1 -2.1,2.5 0,1.5 0.8,2.6 2.1,2.6 z m 21.3,1 0,-8.3 -3.6,8.3 -1.4,0 -3.6,-8.3 0,8.3 -1.4,0 0,-10.6 2,0 3.7,8.7 3.8,-8.7 2,0 0,10.6 z m 11,-2 c -0.4,1.3 -1.6,2.3 -3.2,2.3 -1.9,0 -3.6,-1.4 -3.6,-3.9 0,-2.3 1.6,-3.8 3.4,-3.8 2.2,0 3.5,1.5 3.5,3.8 l 0,0.5 -5.4,0 c 0,1.3 1,2.2 2.2,2.2 1.2,0 1.8,-0.6 2,-1.5 z m -1.4,-2.3 c 0,-1 -0.7,-1.8 -2,-1.8 -1.2,0 -1.9,0.9 -2,1.8 z m 8,-1.5 -0.6,0 c -1.2,0 -2,0.6 -2,2.2 l 0,3.6 -1.4,0 0,-7.2 1.4,0 0,1.3 c 0.5,-1.1 1.4,-1.4 2.2,-1.4 l 0.5,0 0,1.5 z m 3.1,5.9 c 0.1,1 0.9,1.8 2,1.8 1.5,0 2.2,-0.8 2.2,-2.3 l 0,-1 c -0.3,0.7 -1.1,1.2 -2.2,1.2 -1.9,0 -3.3,-1.5 -3.3,-3.5 0,-1.9 1.3,-3.5 3.3,-3.5 1.1,0 1.9,0.4 2.2,1.1 l 0,-1 1.4,0 0,6.7 c 0,1.8 -0.9,3.6 -3.6,3.6 -1.8,0 -3.1,-1.1 -3.3,-2.7 z m 4.2,-3.9 c 0,-1.4 -0.8,-2.3 -2.1,-2.3 -1.2,0 -2.1,0.9 -2.1,2.3 0,1.4 0.8,2.3 2.1,2.3 1.2,0 2.1,-0.9 2.1,-2.3 z m 10.6,1.8 c -0.4,1.3 -1.6,2.3 -3.2,2.3 -1.9,0 -3.6,-1.4 -3.6,-3.9 0,-2.3 1.6,-3.8 3.4,-3.8 2.2,0 3.5,1.5 3.5,3.8 l 0,0.5 -5.4,0 c 0,1.3 1,2.2 2.2,2.2 1.2,0 1.8,-0.6 2,-1.5 z m -1.4,-2.3 c 0,-1 -0.7,-1.8 -2,-1.8 -1.2,0 -1.9,0.9 -2,1.8 z"
     id="path18"
     inkscape:connector-curvature="0"
     style="fill:#404040"
     sodipodi:nodetypes="cccccssccccsssccscssssccscccsccccccssscccssscsccssccssscccsscsccssscssccssccssccsscccssssccscccsccccssccssscccsscsccssscccccssccsssccssscccscccssssscccccccccccccccssssccscccscccsscccccsccccsscssscccssccssssscssssccscccscc" />
  <path
     class="st11"
     d="m 484,222.6 124.4,0 m -238.1,41 c 0,22.6 -18.4,41 -41,41 l -285.300003,0 M 370.3,263.6 c 0,-22.6 18.4,-41 41,-41 l 30.7,0"
     id="path100"
     inkscape:connector-curvature="0"
     style="fill:none;stroke:#404040;stroke-width:4;stroke-linecap:round;stroke-linejoin:round;stroke-miterlimit:10"
     sodipodi:nodetypes="cccsccsc" />
  <circle
     class="st16"
     cx="272.70001"
     cy="304.59998"
     r="21"
     id="circle102"
     style="fill:#b3e3ff;stroke:#404040;stroke-width:4;stroke-linejoin:round;stroke-miterlimit:10" />
  <circle
     class="st16"
     cx="189.39999"
     cy="304.59998"
     r="21"
     id="circle104"
     style="fill:#b3e3ff;stroke:#404040;stroke-width:4;stroke-linejoin:round;stroke-miterlimit:10" />
  <circle
     class="st17"
     cx="106.2"
     cy="304.59998"
     r="21"
     id="circle106"
     style="fill:#ffffff;stroke:#404040;stroke-width:4;stroke-linecap:round;stroke-linejoin:round;stroke-miterlimit:10" />
  <circle
     class="st17"
     cx="23"
     cy="304.59998"
     r="21"
     id="circle108"
     style="fill:#ffffff;stroke:#404040;stroke-width:4;stroke-linecap:round;stroke-linejoin:round;stroke-miterlimit:10" />
  <circle
     class="st5"
     cx="463"
     cy="222.59999"
     r="21"
     id="circle110"
     style="fill:#4ed1a1;stroke:#404040;stroke-width:4;stroke-linecap:round;stroke-linejoin:round;stroke-miterlimit:10" />
  <circle
     class="st5"
     cx="629.40002"
     cy="222.59999"
     r="21"
     id="circle112"
     style="fill:#4ed1a1;stroke:#404040;stroke-width:4;stroke-linecap:round;stroke-linejoin:round;stroke-miterlimit:10" />
  <circle
     class="st5"
     cx="546.20001"
     cy="222.59999"
     r="21"
     id="circle114"
     style="fill:#4ed1a1;stroke:#404040;stroke-width:4;stroke-linecap:round;stroke-linejoin:round;stroke-miterlimit:10" />
  <path
     class="st11"
     d="m 629.4,179.9 0,-23.5 m 10.9,14.8 -10.9,10.9 -10.8,-10.9"
     id="path116"
     inkscape:connector-curvature="0"
     style="fill:none;stroke:#404040;stroke-width:4;stroke-linecap:round;stroke-linejoin:round;stroke-miterlimit:10" />
  <path
     class="st5"
     d="m 579.4,83.2 100,0 0,50 -100,0 z"
     id="path118"
     inkscape:connector-curvature="0"
     style="fill:#4ed1a1;stroke:#404040;stroke-width:4;stroke-linecap:round;stroke-linejoin:round;stroke-miterlimit:10" />
  <path
     class="st9"
     d="m 602.6,114.2 0,-10.6 6.5,0 0,1.4 -5,0 0,3.4 4.5,0 0,1.4 -4.5,0 0,4.5 -1.5,0 z m 14.7,-2.1 c -0.4,1.3 -1.6,2.3 -3.2,2.3 -1.9,0 -3.6,-1.4 -3.6,-3.9 0,-2.3 1.6,-3.8 3.4,-3.8 2.2,0 3.5,1.5 3.5,3.8 l 0,0.4 -5.4,0 c 0,1.3 1,2.2 2.2,2.2 1.2,0 1.8,-0.6 2,-1.5 l 1.1,0.5 z m -1.5,-2.3 c 0,-1 -0.7,-1.8 -2,-1.8 -1.2,0 -1.9,0.9 -2,1.8 l 4,0 z m 5.8,0.3 1.9,-0.3 c 0.4,-0.1 0.6,-0.3 0.6,-0.5 0,-0.7 -0.5,-1.3 -1.6,-1.3 -1,0 -1.5,0.6 -1.6,1.5 l -1.4,-0.3 c 0.2,-1.4 1.4,-2.3 3,-2.3 2.2,0 3,1.2 3,2.6 l 0,3.6 c 0,0.6 0.1,1 0.1,1.2 l -1.4,0 c 0,-0.2 -0.1,-0.5 -0.1,-1 -0.3,0.5 -1,1.2 -2.3,1.2 -1.5,0 -2.4,-1 -2.4,-2.2 0,-1.3 0.9,-2.1 2.2,-2.2 z m 2.5,1 0,-0.3 -2.2,0.3 c -0.6,0.1 -1.1,0.4 -1.1,1.1 0,0.5 0.4,1 1.2,1 1.2,0 2.1,-0.5 2.1,-2.1 z m 6.2,-4.1 1.6,0 0,1.3 -1.6,0 0,3.8 c 0,0.7 0.3,1 1,1 0.2,0 0.4,0 0.6,-0.1 l 0,1.2 c -0.1,0 -0.5,0.1 -1,0.1 -1.2,0 -2,-0.8 -2,-2.1 l 0,-4 -1.4,0 0,-1.3 0.4,0 c 0.8,0 1.1,-0.5 1.1,-1.1 l 0,-1.2 1.3,0 0,2.4 z m 6.8,7.4 c -1.7,0 -2.7,-1.3 -2.7,-2.9 l 0,-4.5 1.4,0 0,4.3 c 0,1 0.4,1.9 1.6,1.9 1.1,0 1.7,-0.8 1.7,-1.8 l 0,-4.4 1.4,0 0,5.9 c 0,0.6 0,1.1 0.1,1.3 l -1.4,0 c 0,-0.2 -0.1,-0.6 -0.1,-0.9 -0.2,0.8 -1.1,1.1 -2,1.1 z m 10.7,-6 -0.6,0 c -1.2,0 -2,0.6 -2,2.2 l 0,3.6 -1.4,0 0,-7.2 1.4,0 0,1.3 c 0.5,-1.1 1.4,-1.4 2.2,-1.4 l 0.5,0 0,1.5 z m 8.4,3.7 c -0.4,1.3 -1.6,2.3 -3.2,2.3 -1.9,0 -3.6,-1.4 -3.6,-3.9 0,-2.3 1.6,-3.8 3.4,-3.8 2.2,0 3.5,1.5 3.5,3.8 l 0,0.4 -5.4,0 c 0,1.3 1,2.2 2.2,2.2 1.2,0 1.8,-0.6 2,-1.5 l 1.1,0.5 z m -1.4,-2.3 c 0,-1 -0.7,-1.8 -2,-1.8 -1.2,0 -1.9,0.9 -2,1.8 l 4,0 z"
     id="path120"
     inkscape:connector-curvature="0"
     style="fill:#404040" />
  <path
     class="st17"
     d="m 456.5,222.6 13,0 m -11.1,-4.6 9.2,9.2 m 0,-9.2 -9.2,9.2 m 4.6,-11.1 0,13 m 159.9,-6.5 13,0 m -11,-4.6 9.1,9.2 m 0,-9.2 -9.1,9.2 m 4.5,-11.1 0,13"
     id="path122"
     inkscape:connector-curvature="0"
     style="fill:#ffffff;stroke:#404040;stroke-width:4;stroke-linecap:round;stroke-linejoin:round;stroke-miterlimit:10" />
  <path
     class="st16"
     d="m 579.4,313.7 100,0 0,50 -100,0 z"
     id="path124"
     inkscape:connector-curvature="0"
     style="fill:#b3e3ff;stroke:#404040;stroke-width:4;stroke-linejoin:round;stroke-miterlimit:10" />
  <path
     class="st9"
     d="m 614.8,344.7 0,-8.3 -3.6,8.3 -1.3,0 -3.6,-8.3 0,8.3 -1.6,0 0,-10.6 2,0 3.7,8.7 3.8,-8.7 2,0 0,10.6 -1.4,0 z m 6.4,-4.1 1.9,-0.3 c 0.4,-0.1 0.6,-0.3 0.6,-0.5 0,-0.7 -0.5,-1.3 -1.6,-1.3 -1,0 -1.5,0.6 -1.6,1.5 l -1.4,-0.3 c 0.2,-1.4 1.4,-2.3 3,-2.3 2.2,0 3,1.2 3,2.6 l 0,3.6 c 0,0.6 0.1,1 0.1,1.2 l -1.4,0 c 0,-0.2 -0.1,-0.5 -0.1,-1 -0.3,0.5 -1,1.2 -2.3,1.2 -1.5,0 -2.4,-1 -2.4,-2.2 0,-1.3 0.9,-2.1 2.2,-2.2 z m 2.5,1 0,-0.3 -2.2,0.3 c -0.6,0.1 -1.1,0.4 -1.1,1.1 0,0.5 0.4,1 1.2,1 1.2,0 2.1,-0.5 2.1,-2.1 z m 4.9,0.8 c 0.1,0.8 0.7,1.3 1.7,1.3 0.8,0 1.2,-0.4 1.2,-1 0,-0.5 -0.3,-0.8 -0.9,-0.9 l -1.2,-0.3 c -1.1,-0.2 -1.8,-1 -1.8,-2 0,-1.2 1.2,-2.3 2.6,-2.3 2,0 2.6,1.3 2.7,1.9 l -1.2,0.5 c -0.1,-0.4 -0.4,-1.2 -1.5,-1.2 -0.7,0 -1.2,0.5 -1.2,1 0,0.4 0.3,0.8 0.8,0.9 l 1.2,0.3 c 1.3,0.3 2,1.1 2,2.1 0,1 -0.9,2.2 -2.6,2.2 -2,0 -2.8,-1.3 -2.9,-2.1 l 1.1,-0.4 z m 8.9,-4.9 1.6,0 0,1.3 -1.6,0 0,3.8 c 0,0.7 0.3,1 1,1 0.2,0 0.4,0 0.6,-0.1 l 0,1.2 c -0.1,0 -0.5,0.1 -1,0.1 -1.2,0 -2,-0.8 -2,-2.1 l 0,-4 -1.4,0 0,-1.3 0.4,0 c 0.8,0 1.1,-0.5 1.1,-1.1 l 0,-1.2 1.3,0 0,2.4 z m 10.4,5.1 c -0.4,1.3 -1.6,2.3 -3.2,2.3 -1.9,0 -3.6,-1.4 -3.6,-3.9 0,-2.3 1.6,-3.8 3.4,-3.8 2.2,0 3.5,1.5 3.5,3.8 l 0,0.4 -5.4,0 c 0,1.3 1,2.2 2.2,2.2 1.2,0 1.8,-0.6 2,-1.5 l 1.1,0.5 z m -1.5,-2.3 c 0,-1 -0.7,-1.8 -2,-1.8 -1.2,0 -1.9,0.9 -2,1.8 l 4,0 z m 8.1,-1.4 -0.6,0 c -1.2,0 -2,0.6 -2,2.2 l 0,3.6 -1.4,0 0,-7.2 1.4,0 0,1.3 c 0.5,-1.1 1.4,-1.4 2.2,-1.4 l 0.5,0 0,1.5 z"
     id="path126"
     inkscape:connector-curvature="0"
     style="fill:#404040" />
  <path
     class="st11"
     d="m 629.4,267.2 0,23.5 m -10.8,-14.8 10.8,-10.9 10.9,10.9"
     id="path128"
     inkscape:connector-curvature="0"
     style="fill:none;stroke:#404040;stroke-width:4;stroke-linecap:round;stroke-linejoin:round;stroke-miterlimit:10" />
  <path
     class="st17"
     d="m 539.7,222.6 13,0 m -11.1,-4.6 9.2,9.2 m 0,-9.2 -9.2,9.2 m 4.6,-11.1 0,13"
     id="path130"
     inkscape:connector-curvature="0"
     style="fill:#ffffff;stroke:#404040;stroke-width:4;stroke-linecap:round;stroke-linejoin:round;stroke-miterlimit:10" />
</svg>
