<?xml version="1.0" encoding="UTF-8" standalone="no"?>
<svg
   xmlns:osb="http://www.openswatchbook.org/uri/2009/osb"
   xmlns:dc="http://purl.org/dc/elements/1.1/"
   xmlns:cc="http://creativecommons.org/ns#"
   xmlns:rdf="http://www.w3.org/1999/02/22-rdf-syntax-ns#"
   xmlns:svg="http://www.w3.org/2000/svg"
   xmlns="http://www.w3.org/2000/svg"
   xmlns:sodipodi="http://sodipodi.sourceforge.net/DTD/sodipodi-0.dtd"
   xmlns:inkscape="http://www.inkscape.org/namespaces/inkscape"
   viewBox="0 0 800 450"
   id="svg2"
   version="1.1"
   inkscape:version="0.92.5 (2060ec1f9f, 2020-04-08)"
   sodipodi:docname="detached-head.svg"
   width="800"
   height="450">
  <metadata
     id="metadata33">
    <rdf:RDF>
      <cc:Work
         rdf:about="">
        <dc:format>image/svg+xml</dc:format>
        <dc:type
           rdf:resource="http://purl.org/dc/dcmitype/StillImage" />
        <dc:title />
      </cc:Work>
    </rdf:RDF>
  </metadata>
  <defs
     id="defs31">
    <marker
       inkscape:stockid="Arrow2Mstart"
       orient="auto"
       refY="0"
       refX="0"
       id="Arrow2Mstart"
       style="overflow:visible"
       inkscape:isstock="true">
      <path
         id="path4279"
         style="fill:#000000;fill-opacity:1;fill-rule:evenodd;stroke:#000000;stroke-width:0.625;stroke-linejoin:round;stroke-opacity:1"
         d="M 8.7185878,4.0337352 -2.2072895,0.01601326 8.7185884,-4.0017078 c -1.7454984,2.3720609 -1.7354408,5.6174519 -6e-7,8.035443 z"
         transform="scale(0.6,0.6)"
         inkscape:connector-curvature="0" />
    </marker>
    <marker
       inkscape:stockid="Arrow2Lstart"
       orient="auto"
       refY="0"
       refX="0"
       id="marker4751"
       style="overflow:visible"
       inkscape:isstock="true">
      <path
         id="path4753"
         style="fill:#000000;fill-opacity:1;fill-rule:evenodd;stroke:#000000;stroke-width:0.625;stroke-linejoin:round;stroke-opacity:1"
         d="M 8.7185878,4.0337352 -2.2072895,0.01601326 8.7185884,-4.0017078 c -1.7454984,2.3720609 -1.7354408,5.6174519 -6e-7,8.035443 z"
         transform="matrix(1.1,0,0,1.1,1.1,0)"
         inkscape:connector-curvature="0" />
    </marker>
    <marker
       inkscape:stockid="Arrow2Lstart"
       orient="auto"
       refY="0"
       refX="0"
       id="Arrow2Lstart"
       style="overflow:visible"
       inkscape:isstock="true">
      <path
         id="path4273"
         style="fill:#000000;fill-opacity:1;fill-rule:evenodd;stroke:#000000;stroke-width:0.625;stroke-linejoin:round;stroke-opacity:1"
         d="M 8.7185878,4.0337352 -2.2072895,0.01601326 8.7185884,-4.0017078 c -1.7454984,2.3720609 -1.7354408,5.6174519 -6e-7,8.035443 z"
         transform="matrix(1.1,0,0,1.1,1.1,0)"
         inkscape:connector-curvature="0" />
    </marker>
    <marker
       inkscape:stockid="Arrow1Mstart"
       orient="auto"
       refY="0"
       refX="0"
       id="Arrow1Mstart"
       style="overflow:visible"
       inkscape:isstock="true">
      <path
         id="path4261"
         d="M 0,0 5,-5 -12.5,0 5,5 0,0 Z"
         style="fill:#000000;fill-opacity:1;fill-rule:evenodd;stroke:#000000;stroke-width:1pt;stroke-opacity:1"
         transform="matrix(0.4,0,0,0.4,4,0)"
         inkscape:connector-curvature="0" />
    </marker>
    <marker
       inkscape:stockid="Arrow1Lstart"
       orient="auto"
       refY="0"
       refX="0"
       id="marker4605"
       style="overflow:visible"
       inkscape:isstock="true">
      <path
         id="path4607"
         d="M 0,0 5,-5 -12.5,0 5,5 0,0 Z"
         style="fill:#000000;fill-opacity:1;fill-rule:evenodd;stroke:#000000;stroke-width:1pt;stroke-opacity:1"
         transform="matrix(0.8,0,0,0.8,10,0)"
         inkscape:connector-curvature="0" />
    </marker>
    <marker
       inkscape:stockid="Arrow1Lstart"
       orient="auto"
       refY="0"
       refX="0"
       id="marker4571"
       style="overflow:visible"
       inkscape:isstock="true">
      <path
         id="path4573"
         d="M 0,0 5,-5 -12.5,0 5,5 0,0 Z"
         style="fill:#000000;fill-opacity:1;fill-rule:evenodd;stroke:#000000;stroke-width:1pt;stroke-opacity:1"
         transform="matrix(0.8,0,0,0.8,10,0)"
         inkscape:connector-curvature="0" />
    </marker>
    <marker
       inkscape:stockid="Arrow1Lstart"
       orient="auto"
       refY="0"
       refX="0"
       id="marker4543"
       style="overflow:visible"
       inkscape:isstock="true">
      <path
         id="path4545"
         d="M 0,0 5,-5 -12.5,0 5,5 0,0 Z"
         style="fill:#000000;fill-opacity:1;fill-rule:evenodd;stroke:#000000;stroke-width:1pt;stroke-opacity:1"
         transform="matrix(0.8,0,0,0.8,10,0)"
         inkscape:connector-curvature="0" />
    </marker>
    <marker
       inkscape:stockid="Arrow1Lstart"
       orient="auto"
       refY="0"
       refX="0"
       id="Arrow1Lstart"
       style="overflow:visible"
       inkscape:isstock="true">
      <path
         id="path4255"
         d="M 0,0 5,-5 -12.5,0 5,5 0,0 Z"
         style="fill:#000000;fill-opacity:1;fill-rule:evenodd;stroke:#000000;stroke-width:1pt;stroke-opacity:1"
         transform="matrix(0.8,0,0,0.8,10,0)"
         inkscape:connector-curvature="0" />
    </marker>
    <linearGradient
       id="linearGradient4200"
       osb:paint="solid">
      <stop
         style="stop-color:#b3e3ff;stop-opacity:1;"
         offset="0"
         id="stop4202" />
    </linearGradient>
  </defs>
  <sodipodi:namedview
     pagecolor="#ffffff"
     bordercolor="#666666"
     borderopacity="1"
     objecttolerance="10"
     gridtolerance="10"
     guidetolerance="10"
     inkscape:pageopacity="0"
     inkscape:pageshadow="2"
     inkscape:window-width="1920"
     inkscape:window-height="1009"
     id="namedview29"
     showgrid="false"
     showborder="true"
     borderlayer="true"
     inkscape:zoom="0.94752309"
     inkscape:cx="349.18785"
     inkscape:cy="158.73607"
     inkscape:window-x="0"
     inkscape:window-y="0"
     inkscape:window-maximized="1"
     inkscape:current-layer="g5078"
     fit-margin-top="0"
     fit-margin-left="0"
     fit-margin-right="0"
     fit-margin-bottom="0" />
  <style
     id="style4">.st0{display:none;} .st1{display:inline;} .st2{fill:#FFFFFF;} .st3{fill:none;stroke:#9882CE;stroke-width:4;stroke-miterlimit:10;} .st4{fill:#FFFFFF;stroke:#404040;stroke-width:4;stroke-linecap:round;stroke-linejoin:round;stroke-miterlimit:10;} .st5{fill:#FFFFFF;stroke:#404040;stroke-width:4;stroke-miterlimit:10;} .st6{fill:#B3E3FF;stroke:#404040;stroke-width:4;stroke-miterlimit:10;} .st7{fill:#B18BE8;stroke:#404040;stroke-width:4;stroke-miterlimit:10;} .st8{fill:#FFFFFF;stroke:#404040;stroke-width:6;stroke-miterlimit:10;} .st9{fill:#B3E3FF;stroke:#404040;stroke-width:6;stroke-miterlimit:10;} .st10{fill:#404040;} .st11{fill:none;stroke:#404040;stroke-width:4;stroke-linecap:round;stroke-linejoin:round;stroke-miterlimit:10;} .st12{fill:#B18BE8;stroke:#404040;stroke-width:4;stroke-linecap:round;stroke-linejoin:round;stroke-miterlimit:10;} .st13{fill:none;stroke:#404040;stroke-width:4;stroke-miterlimit:10;} .st14{fill:#4ED1A1;stroke:#404040;stroke-width:4;stroke-miterlimit:10;} .st15{fill:none;stroke:#CCCCCC;stroke-width:7;stroke-linecap:round;stroke-linejoin:round;stroke-miterlimit:10;} .st16{fill:#FFFFFF;stroke:#CCCCCC;stroke-width:7;stroke-linecap:round;stroke-linejoin:round;stroke-miterlimit:10;} .st17{fill:none;stroke:#404040;stroke-width:7;stroke-miterlimit:10;} .st18{fill:#B3E3FF;stroke:#404040;stroke-width:7;stroke-miterlimit:10;} .st19{fill:#CCCCCC;} .st20{fill:none;stroke:#404040;stroke-width:8;stroke-linecap:round;stroke-miterlimit:10;} .st21{fill:#FFFFFF;stroke:#404040;stroke-width:4;stroke-linejoin:round;stroke-miterlimit:10;} .st22{fill:#B3E3FF;stroke:#404040;stroke-width:4;stroke-linejoin:round;stroke-miterlimit:10;} .st23{fill:none;stroke:#CCCCCC;stroke-linecap:round;stroke-linejoin:round;stroke-miterlimit:10;} .st24{fill:#999999;} .st25{fill:#4ED1A1;stroke:#404040;stroke-width:4;stroke-linecap:round;stroke-linejoin:round;stroke-miterlimit:10;} .st26{fill:#4CD3D6;stroke:#404040;stroke-width:4;stroke-linejoin:round;stroke-miterlimit:10;} .st27{fill:none;stroke:#59AFE1;stroke-width:4;stroke-miterlimit:10;} .st28{fill:#59AFE1;stroke:#404040;stroke-width:4;stroke-linejoin:round;stroke-miterlimit:10;} .st29{fill:#FFFFFF;stroke:#59AFE1;stroke-width:4;stroke-miterlimit:10;} .st30{fill:#B3E3FF;stroke:#404040;stroke-width:4;stroke-linecap:round;stroke-linejoin:round;stroke-miterlimit:10;} .st31{fill:#FC8363;stroke:#404040;stroke-width:4;stroke-linecap:round;stroke-linejoin:round;stroke-miterlimit:10;} .st32{fill:#CCCCCC;stroke:#404040;stroke-width:4;stroke-miterlimit:10;} .st33{fill:#FFFFFF;stroke:#6693ED;stroke-width:4;stroke-miterlimit:10;} .st34{fill:none;stroke:#A97CDD;stroke-width:4;stroke-linecap:round;stroke-linejoin:round;stroke-miterlimit:10;} .st35{fill:none;stroke:#B3E3FF;stroke-width:4;stroke-linecap:round;stroke-linejoin:round;stroke-miterlimit:10;} .st36{fill:none;stroke:#4ED1A1;stroke-width:4;stroke-linecap:round;stroke-miterlimit:10;} .st37{fill:none;stroke:#4ED1A1;stroke-width:4;stroke-linecap:round;stroke-linejoin:round;stroke-miterlimit:10;} .st38{fill:#E24B88;stroke:#404040;stroke-width:4;stroke-linecap:round;stroke-linejoin:round;stroke-miterlimit:10;} .st39{fill:none;stroke:#DEEFF8;stroke-width:4;stroke-miterlimit:10;} .st40{fill:none;stroke:#CCCCCC;stroke-width:4;stroke-linecap:round;stroke-linejoin:round;} .st41{fill:none;stroke:#CCCCCC;stroke-width:4;stroke-linecap:round;stroke-linejoin:round;stroke-dasharray:0,14.3051;} .st42{fill:none;stroke:#CCCCCC;stroke-width:4;stroke-linecap:round;stroke-linejoin:round;stroke-dasharray:0,14.1689;} .st43{fill:none;stroke:#CCCCCC;stroke-width:4;stroke-linecap:round;stroke-linejoin:round;stroke-dasharray:0,13.9788;} .st44{fill:none;stroke:#CCCCCC;stroke-width:4;stroke-linecap:round;stroke-linejoin:round;stroke-dasharray:0,14.7877;} .st45{fill:none;stroke:#CCCCCC;stroke-width:4;stroke-linecap:round;stroke-linejoin:round;stroke-dasharray:0,14.9632;} .st46{fill:none;stroke:#CCCCCC;stroke-width:4;stroke-linecap:round;stroke-linejoin:round;stroke-dasharray:0,12.543;} .st47{fill:none;stroke:#CCCCCC;stroke-width:4;stroke-linecap:round;stroke-linejoin:round;stroke-dasharray:0,13.6844;} .st48{fill:none;stroke:#CCCCCC;stroke-width:4;stroke-linecap:round;stroke-linejoin:round;stroke-dasharray:0,13.7717;} .st49{fill:none;stroke:#CCCCCC;stroke-width:4;stroke-linecap:round;stroke-linejoin:round;stroke-dasharray:0,13.6492;} .st50{fill:none;stroke:#CCCCCC;stroke-width:4;stroke-linecap:round;stroke-linejoin:round;stroke-dasharray:0,13.907;} .st51{fill:#4CD3D6;stroke:#404040;stroke-width:4;stroke-linecap:round;stroke-linejoin:round;stroke-miterlimit:10;} .st52{fill:none;stroke:#CCCCCC;stroke-width:4;stroke-linecap:round;stroke-linejoin:round;stroke-dasharray:0,14.9858;} .st53{fill:none;stroke:#CCCCCC;stroke-width:4;stroke-linecap:round;stroke-linejoin:round;stroke-dasharray:0,14.0118;} .st54{fill:none;stroke:#CCCCCC;stroke-width:4;stroke-linecap:round;stroke-linejoin:round;stroke-dasharray:0,14.1243;} .st55{fill:none;} .st56{fill:#FFFFFF;stroke:#404040;stroke-width:7;stroke-linecap:round;stroke-linejoin:round;stroke-miterlimit:10;} .st57{fill:#59AFE1;stroke:#404040;stroke-width:7;stroke-linejoin:round;stroke-miterlimit:10;} .st58{fill:#E24B88;stroke:#404040;stroke-width:7;stroke-linecap:round;stroke-linejoin:round;stroke-miterlimit:10;} .st59{fill:none;stroke:#404040;stroke-width:7;stroke-linecap:round;stroke-linejoin:round;stroke-miterlimit:10;} .st60{fill:none;stroke:#CCCCCC;stroke-width:4;stroke-linecap:round;stroke-linejoin:round;stroke-miterlimit:10;} .st61{fill:#FFFFFF;stroke:#CCCCCC;stroke-width:4;stroke-linecap:round;stroke-linejoin:round;stroke-miterlimit:10;} .st62{fill:#F5F5F5;} .st63{fill:#3873AE;} .st64{fill:#75706C;} .st65{fill:none;stroke:#B3E3FF;stroke-width:4;stroke-miterlimit:10;} .st66{fill:#6F6F6F;} .st67{fill:none;stroke:#6F6F6F;stroke-width:2;stroke-miterlimit:10;} .st68{fill:none;stroke:#6F6F6F;stroke-width:3;stroke-miterlimit:10;}</style>
  <g
     id="git_x5F_checkout_x5F_1"
     transform="translate(-180.10001,188.80001)">
    <g
       id="g5055"
       transform="translate(-6.1035155e-6,0)">
      <g
         id="g5125"
         transform="matrix(1.1153361,0,0,1.1077972,-66.536078,-28.094167)">
        <g
           transform="matrix(1.2382324,0,0,1.1626526,-79.653159,-42.444912)"
           id="g5101">
          <g
             id="g5078"
             transform="matrix(1.0462768,0,0,1.0612171,-15.450548,4.6480202)">
            <path
               class="st11"
               d="m 467,175.1 0,-23.5 m 10.9,14.8 -10.9,10.8 -10.8,-10.8 m 230.7,8.7 0,-23.5 m 10.8,14.8 -10.8,10.8 -10.9,-10.8"
               id="path9"
               inkscape:connector-curvature="0"
               style="fill:none;stroke:#404040;stroke-width:4;stroke-linecap:round;stroke-linejoin:round;stroke-miterlimit:10" />
            <path
               class="st12"
               d="m 419,80.7 96,0 0,50 -96,0 z"
               id="path11"
               inkscape:connector-curvature="0"
               style="fill:#b18be8;stroke:#404040;stroke-width:4;stroke-linecap:round;stroke-linejoin:round;stroke-miterlimit:10" />
            <path
               class="st10"
               d="m 441.8,106.6 1.9,-0.3 c 0.4,-0.1 0.6,-0.3 0.6,-0.5 0,-0.7 -0.5,-1.3 -1.6,-1.3 -1,0 -1.5,0.6 -1.6,1.5 l -1.4,-0.3 c 0.2,-1.4 1.4,-2.3 3,-2.3 2.2,0 3,1.2 3,2.6 l 0,3.6 c 0,0.6 0.1,1 0.1,1.2 l -1.4,0 c 0,-0.2 -0.1,-0.5 -0.1,-1 -0.3,0.5 -1,1.2 -2.3,1.2 -1.5,0 -2.4,-1 -2.4,-2.2 0,-1.3 0.9,-2.1 2.2,-2.2 z m 2.5,1 0,-0.3 -2.2,0.3 c -0.6,0.1 -1.1,0.4 -1.1,1.1 0,0.5 0.4,1 1.2,1 1.1,0 2.1,-0.5 2.1,-2.1 z m 5.9,3.1 0,-6.9 -2.4,0 0,-1 c 1.3,0 2.3,-0.8 2.5,-1.8 l 1.3,0 0,9.7 -1.4,0 z m 10.8,-2.1 c -0.4,1.3 -1.6,2.3 -3.2,2.3 -1.9,0 -3.6,-1.4 -3.6,-3.9 0,-2.3 1.6,-3.8 3.4,-3.8 2.2,0 3.5,1.5 3.5,3.8 l 0,0.4 -5.4,0 c 0,1.3 1,2.2 2.2,2.2 1.2,0 1.8,-0.6 2,-1.5 l 1.1,0.5 z m -1.5,-2.3 c 0,-1 -0.7,-1.8 -2,-1.8 -1.2,0 -1.9,0.9 -2,1.8 l 4,0 z m 3.5,1.8 c 0,-1.2 0.8,-2.1 1.8,-2.4 -0.9,-0.3 -1.6,-1.2 -1.6,-2.3 0,-1.6 1.4,-2.7 3.3,-2.7 1.9,0 3.3,1.1 3.3,2.7 0,1 -0.7,1.9 -1.6,2.3 1,0.3 1.8,1.2 1.8,2.4 0,1.6 -1.3,2.8 -3.5,2.8 -2.2,0 -3.5,-1.2 -3.5,-2.8 z m 5.6,-0.1 c 0,-0.9 -0.8,-1.7 -2,-1.7 -1.3,0 -2,0.7 -2,1.7 0,0.9 0.7,1.6 2,1.6 1.3,0 2,-0.7 2,-1.6 z m -0.2,-4.5 c 0,-0.9 -0.7,-1.6 -1.8,-1.6 -1.1,0 -1.8,0.7 -1.8,1.6 0,0.9 0.8,1.6 1.8,1.6 1,0 1.8,-0.6 1.8,-1.6 z m 6.2,1.2 0,5.9 -1.5,0 0,-5.9 -1.3,0 0,-1.3 1.3,0 0,-1.2 c 0,-1.6 1.1,-2.5 2.4,-2.5 0.5,0 0.8,0.1 0.8,0.2 l 0,1.3 c -0.1,0 -0.3,-0.1 -0.6,-0.1 -0.5,0 -1.1,0.2 -1.1,1.2 l 0,1.1 1.7,0 0,1.3 -1.7,0 z m 4,6 0,-10.9 1.4,0 0,4.7 c 0.3,-0.6 1.2,-1.2 2.4,-1.2 2.2,0 3.3,1.7 3.3,3.8 0,2.1 -1.2,3.8 -3.4,3.8 -1.1,0 -1.9,-0.5 -2.3,-1.2 l 0,1 -1.4,0 z m 3.5,-6.2 c -1.2,0 -2.1,1 -2.1,2.5 0,1.6 0.9,2.6 2.1,2.6 1.3,0 2.1,-1 2.1,-2.6 0.1,-1.5 -0.8,-2.5 -2.1,-2.5 z m 6.9,3.1 c 0.1,1.2 1,2 2.2,2 1.2,0 2.1,-0.8 2.1,-2 0,-1.3 -1,-2 -2.1,-2 -0.7,0 -1.4,0.3 -1.8,0.7 l -1.4,-0.6 1.3,-4.8 5.1,0 0,1.4 -4.2,0 -0.7,2.8 c 0.4,-0.5 1.2,-0.7 2,-0.7 1.9,0 3.3,1.2 3.3,3.2 0,1.8 -1.4,3.3 -3.6,3.3 -2.1,0 -3.5,-1.4 -3.6,-2.9 l 1.4,-0.4 z"
               id="path13"
               inkscape:connector-curvature="0"
               style="fill:#404040" />
            <path
               class="st30"
               d="m 638.8,80.7 96,0 0,50 -96,0 z"
               id="path15"
               inkscape:connector-curvature="0"
               style="fill:#b3e3ff;stroke:#404040;stroke-width:4;stroke-linecap:round;stroke-linejoin:round;stroke-miterlimit:10" />
            <path
               class="st10"
               d="m 672.6,111.7 0,-8.3 -3.6,8.3 -1.3,0 -3.6,-8.3 0,8.3 -1.5,0 0,-10.7 2,0 3.7,8.7 3.8,-8.7 2,0 0,10.6 -1.5,0 z m 6.4,-4.1 1.9,-0.3 c 0.4,-0.1 0.6,-0.3 0.6,-0.5 0,-0.7 -0.5,-1.3 -1.6,-1.3 -1,0 -1.5,0.6 -1.6,1.5 l -1.4,-0.3 c 0.2,-1.4 1.4,-2.3 3,-2.3 2.2,0 3,1.2 3,2.6 l 0,3.6 c 0,0.6 0.1,1 0.1,1.2 l -1.4,0 c 0,-0.2 -0.1,-0.5 -0.1,-1 -0.3,0.5 -1,1.2 -2.3,1.2 -1.5,0 -2.4,-1 -2.4,-2.2 0,-1.3 0.9,-2.1 2.2,-2.2 z m 2.5,1 0,-0.3 -2.2,0.3 c -0.6,0.1 -1,0.4 -1,1.1 0,0.5 0.4,1 1.2,1 1.1,0 2,-0.5 2,-2.1 z m 4.9,0.8 c 0.1,0.8 0.7,1.3 1.7,1.3 0.8,0 1.2,-0.4 1.2,-1 0,-0.4 -0.3,-0.8 -0.9,-0.9 l -1.2,-0.3 c -1.1,-0.2 -1.8,-1 -1.8,-2 0,-1.2 1.2,-2.3 2.6,-2.3 2,0 2.6,1.3 2.7,1.9 l -1.2,0.5 c -0.1,-0.4 -0.4,-1.2 -1.5,-1.2 -0.7,0 -1.2,0.5 -1.2,1 0,0.4 0.3,0.8 0.8,0.9 l 1.2,0.3 c 1.3,0.3 2,1.1 2,2.1 0,1 -0.9,2.2 -2.6,2.2 -2,0 -2.8,-1.3 -2.9,-2.1 l 1.1,-0.4 z m 8.9,-4.9 1.6,0 0,1.3 -1.6,0 0,3.7 c 0,0.7 0.3,1 1,1 0.2,0 0.4,0 0.6,-0.1 l 0,1.2 c -0.1,0 -0.5,0.1 -1,0.1 -1.2,0 -2,-0.8 -2,-2.1 l 0,-4 -1.4,0 0,-1.3 0.4,0 c 0.8,0 1.1,-0.5 1.1,-1.1 l 0,-1.2 1.3,0 0,2.5 z m 10.3,5.1 c -0.4,1.3 -1.6,2.3 -3.2,2.3 -1.9,0 -3.6,-1.4 -3.6,-3.9 0,-2.3 1.6,-3.8 3.4,-3.8 2.2,0 3.5,1.5 3.5,3.8 l 0,0.4 -5.4,0 c 0,1.3 1,2.2 2.2,2.2 1.2,0 1.8,-0.6 2,-1.5 l 1.1,0.5 z m -1.4,-2.3 c 0,-1 -0.7,-1.8 -2,-1.8 -1.2,0 -1.9,0.9 -2,1.8 l 4,0 z m 8,-1.4 -0.6,0 c -1.2,0 -2,0.6 -2,2.2 l 0,3.6 -1.4,0 0,-7.2 1.4,0 0,1.3 c 0.5,-1.1 1.4,-1.4 2.2,-1.4 l 0.5,0 0,1.5 z"
               id="path17"
               inkscape:connector-curvature="0"
               style="fill:#404040" />
            <path
               class="st4"
               d="m 378.1,218.2 287.8,0"
               id="path19"
               inkscape:connector-curvature="0"
               style="fill:#ffffff;stroke:#404040;stroke-width:4;stroke-linecap:round;stroke-linejoin:round;stroke-miterlimit:10" />
            <circle
               class="st4"
               cx="357.10001"
               cy="218.2"
               r="21"
               id="circle21"
               style="fill:#ffffff;stroke:#404040;stroke-width:4;stroke-linecap:round;stroke-linejoin:round;stroke-miterlimit:10" />
            <circle
               class="st28"
               cx="467"
               cy="218.2"
               r="21"
               id="circle23"
               style="fill:#59afe1;stroke:#404040;stroke-width:4;stroke-linejoin:round;stroke-miterlimit:10" />
            <circle
               class="st4"
               cx="577"
               cy="218.2"
               r="21"
               id="circle25"
               style="fill:#ffffff;stroke:#404040;stroke-width:4;stroke-linecap:round;stroke-linejoin:round;stroke-miterlimit:10" />
            <circle
               class="st4"
               cx="686.90002"
               cy="218.2"
               r="21"
               id="circle27"
               style="fill:#ffffff;stroke:#404040;stroke-width:4;stroke-linecap:round;stroke-linejoin:round;stroke-miterlimit:10" />
            <g
               id="g4961"
               transform="translate(154,-22)">
              <path
                 style="fill:#000000;fill-opacity:0;stroke:#404040;stroke-width:4;stroke-linecap:round;stroke-linejoin:round;stroke-miterlimit:10;stroke-opacity:0.2745098"
                 inkscape:connector-curvature="0"
                 id="path15-6"
                 d="m 484.8,-7.0895532 96,0 0,50.0000002 -96,0 z"
                 class="st30" />
              <path
                 style="fill:#000000;fill-opacity:0;stroke:#404040;stroke-width:4;stroke-linecap:round;stroke-linejoin:round;stroke-miterlimit:10"
                 inkscape:connector-curvature="0"
                 id="path15-6-7"
                 d="m 264.62687,-7.089553 96,0 0,50 -96,0 z"
                 class="st30" />
              <text
                 id="text4221"
                 y="22.059704"
                 x="286.32837"
                 style="font-style:normal;font-weight:normal;line-height:0%;font-family:sans-serif;letter-spacing:0px;word-spacing:0px;fill:#000000;fill-opacity:1;stroke:none;stroke-width:1px;stroke-linecap:butt;stroke-linejoin:miter;stroke-opacity:1"
                 xml:space="preserve"><tspan
                   style="font-size:17.5px;line-height:1.25"
                   y="22.059704"
                   x="286.32837"
                   id="tspan4223"
                   sodipodi:role="line">HEAD</tspan></text>
              <text
                 id="text4221-9"
                 y="23.542961"
                 x="505.86719"
                 style="font-style:normal;font-weight:normal;line-height:0%;font-family:sans-serif;letter-spacing:0px;word-spacing:0px;fill:#b3b3b3;fill-opacity:1;stroke:none;stroke-width:1px;stroke-linecap:butt;stroke-linejoin:miter;stroke-opacity:1"
                 xml:space="preserve"><tspan
                   style="font-size:17.5px;line-height:1.25;fill:#b3b3b3"
                   y="23.542961"
                   x="505.86719"
                   id="tspan4223-9"
                   sodipodi:role="line">HEAD</tspan></text>
            </g>
            <path
               style="fill:none;fill-rule:evenodd;stroke:#000000;stroke-width:2;stroke-linecap:butt;stroke-linejoin:miter;stroke-miterlimit:4;stroke-dasharray:6, 2;stroke-dashoffset:0;stroke-opacity:1;marker-start:url(#Arrow2Mstart)"
               d="m 533.53071,-29.164179 c 39.60645,-29.594343 64.85449,-17.48037 88.80597,0"
               id="path4249"
               inkscape:connector-curvature="0"
               sodipodi:nodetypes="cc" />
            <path
               inkscape:connector-curvature="0"
               class="st11"
               d="m 466.04187,59.815572 0,-23.558476 m 10.53237,14.836827 -10.53237,10.826874 -10.43575,-10.826874"
               id="path9-3-8"
               style="fill:none;stroke:#404040;stroke-width:3.93685651;stroke-linecap:round;stroke-linejoin:round;stroke-miterlimit:10"
               sodipodi:nodetypes="ccccc" />
            <path
               inkscape:connector-curvature="0"
               class="st11"
               d="m 686.13075,62.800388 0,-23.558476 M 696.66312,54.078739 686.13075,64.905613 675.695,54.078739"
               id="path9-3-8-9"
               style="fill:none;stroke:#404040;stroke-width:3.93685651;stroke-linecap:round;stroke-linejoin:round;stroke-miterlimit:10;stroke-opacity:0.2745098"
               sodipodi:nodetypes="ccccc" />
            <text
               xml:space="preserve"
               style="font-style:normal;font-variant:normal;font-weight:normal;font-stretch:normal;font-size:15.18008614px;line-height:1.25;font-family:sans-serif;-inkscape-font-specification:'sans-serif, Normal';font-variant-ligatures:normal;font-variant-caps:normal;font-variant-numeric:normal;font-feature-settings:normal;text-align:start;letter-spacing:0px;word-spacing:0px;writing-mode:lr-tb;text-anchor:start;fill:#999999;fill-opacity:1;stroke:none;stroke-width:0.7383402"
               x="409.65121"
               y="-60.006039"
               id="text3756"
               transform="scale(1.0091854,0.9908982)"><tspan
                 sodipodi:role="line"
                 id="tspan3754"
                 x="409.65121"
                 y="-60.006039"
                 style="font-style:normal;font-variant:normal;font-weight:normal;font-stretch:normal;font-size:15.18008614px;font-family:sans-serif;-inkscape-font-specification:'sans-serif, Normal';font-variant-ligatures:normal;font-variant-caps:normal;font-variant-numeric:normal;font-feature-settings:normal;text-align:start;writing-mode:lr-tb;text-anchor:start;fill:#999999;stroke-width:0.7383402">Switching to a previous commit</tspan></text>
          </g>
        </g>
      </g>
    </g>
  </g>
</svg>
