<?xml version="1.0" encoding="UTF-8" standalone="no"?>
<svg
   xmlns:dc="http://purl.org/dc/elements/1.1/"
   xmlns:cc="http://creativecommons.org/ns#"
   xmlns:rdf="http://www.w3.org/1999/02/22-rdf-syntax-ns#"
   xmlns:svg="http://www.w3.org/2000/svg"
   xmlns="http://www.w3.org/2000/svg"
   xmlns:sodipodi="http://sodipodi.sourceforge.net/DTD/sodipodi-0.dtd"
   xmlns:inkscape="http://www.inkscape.org/namespaces/inkscape"
   viewBox="0 0 718.2199 735.04006"
   id="svg5943"
   version="1.1"
   inkscape:version="0.91 r"
   sodipodi:docname="git-revert-vs-reset.svg"
   width="202.69762mm"
   height="207.44464mm">
  <metadata
     id="metadata5985">
    <rdf:RDF>
      <cc:Work
         rdf:about="">
        <dc:format>image/svg+xml</dc:format>
        <dc:type
           rdf:resource="http://purl.org/dc/dcmitype/StillImage" />
        <dc:title></dc:title>
      </cc:Work>
    </rdf:RDF>
  </metadata>
  <defs
     id="defs5983" />
  <sodipodi:namedview
     pagecolor="#ffffff"
     bordercolor="#666666"
     borderopacity="1"
     objecttolerance="10"
     gridtolerance="10"
     guidetolerance="10"
     inkscape:pageopacity="0"
     inkscape:pageshadow="2"
     inkscape:window-width="1920"
     inkscape:window-height="1028"
     id="namedview5981"
     showgrid="false"
     fit-margin-top="0"
     fit-margin-left="0"
     fit-margin-right="0"
     fit-margin-bottom="0"
     inkscape:zoom="0.93338095"
     inkscape:cx="413.94538"
     inkscape:cy="269.62894"
     inkscape:window-x="0"
     inkscape:window-y="0"
     inkscape:window-maximized="1"
     inkscape:current-layer="advanced_x5F_undoing_x5F_5"
     units="mm" />
  <style
     id="style5945">.st0{display:none;} .st1{display:inline;} .st2{fill:#FFFFFF;} .st3{fill:none;stroke:#9882CE;stroke-width:4;stroke-miterlimit:10;} .st4{fill:#FFFFFF;stroke:#404040;stroke-width:4;stroke-linecap:round;stroke-linejoin:round;stroke-miterlimit:10;} .st5{fill:#FFFFFF;stroke:#404040;stroke-width:4;stroke-miterlimit:10;} .st6{fill:#B3E3FF;stroke:#404040;stroke-width:4;stroke-miterlimit:10;} .st7{fill:#B18BE8;stroke:#404040;stroke-width:4;stroke-miterlimit:10;} .st8{fill:#FFFFFF;stroke:#404040;stroke-width:6;stroke-miterlimit:10;} .st9{fill:#B3E3FF;stroke:#404040;stroke-width:6;stroke-miterlimit:10;} .st10{fill:#404040;} .st11{fill:none;stroke:#404040;stroke-width:4;stroke-linecap:round;stroke-linejoin:round;stroke-miterlimit:10;} .st12{fill:#B18BE8;stroke:#404040;stroke-width:4;stroke-linecap:round;stroke-linejoin:round;stroke-miterlimit:10;} .st13{fill:#444444;} .st14{fill:none;stroke:#404040;stroke-width:4;stroke-miterlimit:10;} .st15{fill:#4ED1A1;stroke:#404040;stroke-width:4;stroke-miterlimit:10;} .st16{fill:none;stroke:#CCCCCC;stroke-width:7;stroke-linecap:round;stroke-linejoin:round;stroke-miterlimit:10;} .st17{fill:#FFFFFF;stroke:#CCCCCC;stroke-width:7;stroke-linecap:round;stroke-linejoin:round;stroke-miterlimit:10;} .st18{fill:none;stroke:#404040;stroke-width:7;stroke-miterlimit:10;} .st19{fill:#B3E3FF;stroke:#404040;stroke-width:7;stroke-miterlimit:10;} .st20{fill:none;stroke:#CCCCCC;stroke-width:8;stroke-linecap:round;stroke-miterlimit:10;} .st21{fill:none;stroke:#404040;stroke-width:8;stroke-linecap:round;stroke-miterlimit:10;} .st22{fill:#FFFFFF;stroke:#404040;stroke-width:4;stroke-linejoin:round;stroke-miterlimit:10;} .st23{fill:#B3E3FF;stroke:#404040;stroke-width:4;stroke-linejoin:round;stroke-miterlimit:10;} .st24{fill:none;stroke:#CCCCCC;stroke-linecap:round;stroke-linejoin:round;stroke-miterlimit:10;} .st25{fill:#999999;} .st26{fill:#4ED1A1;stroke:#404040;stroke-width:4;stroke-linecap:round;stroke-linejoin:round;stroke-miterlimit:10;} .st27{fill:#4CD3D6;stroke:#404040;stroke-width:4;stroke-linejoin:round;stroke-miterlimit:10;} .st28{fill:none;stroke:#59AFE1;stroke-width:4;stroke-miterlimit:10;} .st29{fill:#59AFE1;stroke:#404040;stroke-width:4;stroke-linejoin:round;stroke-miterlimit:10;} .st30{fill:none;stroke:#404040;stroke-width:8;stroke-linecap:round;stroke-linejoin:round;stroke-miterlimit:10;stroke-dasharray:0,30;} .st31{fill:#FFFFFF;stroke:#59AFE1;stroke-width:4;stroke-miterlimit:10;} .st32{fill:#FC8363;stroke:#404040;stroke-width:4;stroke-linecap:round;stroke-linejoin:round;stroke-miterlimit:10;} .st33{fill:#CCCCCC;stroke:#404040;stroke-width:4;stroke-miterlimit:10;} .st34{fill:#FFFFFF;stroke:#6693ED;stroke-width:4;stroke-miterlimit:10;} .st35{fill:none;stroke:#A97CDD;stroke-width:4;stroke-linecap:round;stroke-linejoin:round;stroke-miterlimit:10;} .st36{fill:none;stroke:#B3E3FF;stroke-width:4;stroke-linecap:round;stroke-linejoin:round;stroke-miterlimit:10;} .st37{fill:none;stroke:#4ED1A1;stroke-width:4;stroke-linecap:round;stroke-miterlimit:10;} .st38{fill:none;stroke:#4ED1A1;stroke-width:4;stroke-linecap:round;stroke-linejoin:round;stroke-miterlimit:10;} .st39{fill:#E24B88;stroke:#404040;stroke-width:4;stroke-linecap:round;stroke-linejoin:round;stroke-miterlimit:10;} .st40{fill:none;stroke:#DEEFF8;stroke-width:4;stroke-miterlimit:10;} .st41{fill:none;stroke:#CCCCCC;stroke-width:4;stroke-linecap:round;stroke-linejoin:round;} .st42{fill:none;stroke:#CCCCCC;stroke-width:4;stroke-linecap:round;stroke-linejoin:round;stroke-dasharray:0,14.3051;} .st43{fill:none;stroke:#CCCCCC;stroke-width:4;stroke-linecap:round;stroke-linejoin:round;stroke-dasharray:0,14.1689;} .st44{fill:none;stroke:#CCCCCC;stroke-width:4;stroke-linecap:round;stroke-linejoin:round;stroke-dasharray:0,13.9788;} .st45{fill:none;stroke:#CCCCCC;stroke-width:4;stroke-linecap:round;stroke-linejoin:round;stroke-dasharray:0,14.7877;} .st46{fill:none;stroke:#CCCCCC;stroke-width:4;stroke-linecap:round;stroke-linejoin:round;stroke-dasharray:0,14.9632;} .st47{fill:#B3E3FF;stroke:#404040;stroke-width:4;stroke-linecap:round;stroke-linejoin:round;stroke-miterlimit:10;} .st48{fill:none;stroke:#CCCCCC;stroke-width:4;stroke-linecap:round;stroke-linejoin:round;stroke-dasharray:0,12.543;} .st49{fill:none;stroke:#CCCCCC;stroke-width:4;stroke-linecap:round;stroke-linejoin:round;stroke-dasharray:0,13.6844;} .st50{fill:none;stroke:#CCCCCC;stroke-width:4;stroke-linecap:round;stroke-linejoin:round;stroke-dasharray:0,13.7717;} .st51{fill:none;stroke:#CCCCCC;stroke-width:4;stroke-linecap:round;stroke-linejoin:round;stroke-dasharray:0,13.6492;} .st52{fill:none;stroke:#CCCCCC;stroke-width:4;stroke-linecap:round;stroke-linejoin:round;stroke-dasharray:0,13.907;} .st53{fill:#4CD3D6;stroke:#404040;stroke-width:4;stroke-linecap:round;stroke-linejoin:round;stroke-miterlimit:10;} .st54{fill:none;stroke:#CCCCCC;stroke-width:4;stroke-linecap:round;stroke-linejoin:round;stroke-dasharray:0,14.9858;} .st55{fill:none;stroke:#CCCCCC;stroke-width:4;stroke-linecap:round;stroke-linejoin:round;stroke-dasharray:0,14.0118;} .st56{fill:none;stroke:#CCCCCC;stroke-width:4;stroke-linecap:round;stroke-linejoin:round;stroke-dasharray:0,14.1243;} .st57{fill:none;} .st58{fill:#FFFFFF;stroke:#404040;stroke-width:7;stroke-linecap:round;stroke-linejoin:round;stroke-miterlimit:10;} .st59{fill:#59AFE1;stroke:#404040;stroke-width:7;stroke-linejoin:round;stroke-miterlimit:10;} .st60{fill:#E24B88;stroke:#404040;stroke-width:7;stroke-linecap:round;stroke-linejoin:round;stroke-miterlimit:10;} .st61{fill:none;stroke:#404040;stroke-width:7;stroke-linecap:round;stroke-linejoin:round;stroke-miterlimit:10;} .st62{fill:none;stroke:#CCCCCC;stroke-width:4;stroke-linecap:round;stroke-linejoin:round;stroke-miterlimit:10;} .st63{fill:#FFFFFF;stroke:#CCCCCC;stroke-width:4;stroke-linecap:round;stroke-linejoin:round;stroke-miterlimit:10;} .st64{fill:#F5F5F5;} .st65{fill:#3873AE;} .st66{fill:#75706C;} .st67{fill:none;stroke:#B3E3FF;stroke-width:4;stroke-miterlimit:10;} .st68{fill:#6F6F6F;} .st69{fill:none;stroke:#6F6F6F;stroke-width:2;stroke-miterlimit:10;} .st70{fill:none;stroke:#6F6F6F;stroke-width:3;stroke-miterlimit:10;}</style>
  <g
     id="advanced_x5F_undoing_x5F_5"
     transform="matrix(1.324117,0,0,1.2425788,-170.53684,-9.6921452)">
    <path
       class="st11"
       d="m 530.8,93.8 15.4,0 0,-15.3 M 353.7,90.6 c 24.9,-23.1 58.1,-37.1 94.7,-37.1 36.5,0 69.7,14 94.5,37"
       id="path5948"
       inkscape:connector-curvature="0"
       style="fill:none;stroke:#404040;stroke-width:4;stroke-linecap:round;stroke-linejoin:round;stroke-miterlimit:10" />
    <path
       class="st4"
       d="m 248.4,137.7 287.7,0"
       id="path5950"
       inkscape:connector-curvature="0"
       style="fill:#ffffff;stroke:#404040;stroke-width:4;stroke-linecap:round;stroke-linejoin:round;stroke-miterlimit:10" />
    <circle
       class="st4"
       cx="227.39999"
       cy="137.7"
       r="21"
       id="circle5952"
       style="fill:#ffffff;stroke:#404040;stroke-width:4;stroke-linecap:round;stroke-linejoin:round;stroke-miterlimit:10" />
    <circle
       class="st4"
       cx="447.20001"
       cy="137.7"
       r="21"
       id="circle5954"
       style="fill:#ffffff;stroke:#404040;stroke-width:4;stroke-linecap:round;stroke-linejoin:round;stroke-miterlimit:10" />
    <circle
       class="st29"
       cx="557.09998"
       cy="137.7"
       r="21"
       id="circle5956"
       style="fill:#59afe1;stroke:#404040;stroke-width:4;stroke-linejoin:round;stroke-miterlimit:10" />
    <path
       class="st39"
       d="m 356.3,158.7 -38,0 c -1.1,0 -2,-0.9 -2,-2 l 0,-38 c 0,-1.1 0.9,-2 2,-2 l 38,0 c 1.1,0 2,0.9 2,2 l 0,38 c 0,1.1 -0.9,2 -2,2 z"
       id="path5958"
       inkscape:connector-curvature="0"
       style="fill:#e24b88;stroke:#404040;stroke-width:4;stroke-linecap:round;stroke-linejoin:round;stroke-miterlimit:10" />
    <path
       class="st11"
       d="m 348.4,126.8 -10.8,10.9 -10.9,-10.9 m 0,21.8 10.9,-10.9 10.8,10.9"
       id="path5960"
       inkscape:connector-curvature="0"
       style="fill:none;stroke:#404040;stroke-width:4;stroke-linecap:round;stroke-linejoin:round;stroke-miterlimit:10" />
    <path
       class="st25"
       d="m 361,14.4 -1.6,0 0,4.3 -1.4,0 0,-10.5 4,0 c 2,0 3.3,1.4 3.3,3.2 0,1.5 -1,2.7 -2.6,3 l 2.5,4.5 -1.7,0 -2.5,-4.5 z m 0.7,-1.3 c 1.2,0 2,-0.7 2,-1.8 0,-1.1 -0.8,-1.8 -2,-1.8 l -2.2,0 0,3.6 2.2,0 z m 12.1,3.6 c -0.4,1.3 -1.6,2.3 -3.2,2.3 -1.9,0 -3.6,-1.4 -3.6,-3.9 0,-2.3 1.6,-3.8 3.5,-3.8 2.2,0 3.5,1.5 3.5,3.8 l 0,0.4 -5.4,0 c 0,1.3 1,2.2 2.2,2.2 1.2,0 1.8,-0.6 2,-1.5 l 1,0.5 z m -1.4,-2.3 c 0,-1 -0.7,-1.8 -2,-1.8 -1.2,0 -1.9,0.9 -2,1.8 l 4,0 z m 7.2,4.4 -1.4,0 -2.9,-7.2 1.6,0 2.1,5.6 2.1,-5.6 1.5,0 -3,7.2 z m 11,-2.1 c -0.4,1.3 -1.6,2.3 -3.2,2.3 -1.9,0 -3.6,-1.4 -3.6,-3.9 0,-2.3 1.6,-3.8 3.5,-3.8 2.2,0 3.5,1.5 3.5,3.8 l 0,0.4 -5.4,0 c 0,1.3 1,2.2 2.2,2.2 1.2,0 1.8,-0.6 2,-1.5 l 1,0.5 z m -1.4,-2.3 c 0,-1 -0.7,-1.8 -2,-1.8 -1.2,0 -1.9,0.9 -2,1.8 l 4,0 z m 8,-1.4 -0.6,0 c -1.2,0 -2,0.6 -2,2.2 l 0,3.6 -1.4,0 0,-7.2 1.4,0 0,1.3 c 0.5,-1.1 1.4,-1.4 2.2,-1.4 l 0.5,0 0,1.5 z m 4.5,-1.4 1.6,0 0,1.3 -1.6,0 0,3.8 c 0,0.7 0.3,1 1,1 0.2,0 0.4,0 0.6,-0.1 l 0,1.2 c -0.1,0 -0.5,0.1 -1,0.1 -1.2,0 -2,-0.8 -2,-2.1 l 0,-4 -1.4,0 0,-1.3 0.4,0 c 0.8,0 1.1,-0.5 1.1,-1.1 l 0,-1.1 1.3,0 0,2.3 z m 4.9,-3.8 c 0.6,0 1,0.4 1,1 0,0.6 -0.5,1 -1,1 -0.6,0 -1,-0.5 -1,-1 0,-0.5 0.5,-1 1,-1 z m -0.7,11 0,-7.2 1.4,0 0,7.2 -1.4,0 z m 6,0 -1.4,0 0,-7.2 1.4,0 0,1 c 0.5,-0.9 1.4,-1.2 2.2,-1.2 1.7,0 2.6,1.2 2.6,2.9 l 0,4.6 -1.4,0 0,-4.3 c 0,-1 -0.4,-1.8 -1.7,-1.8 -1.1,0 -1.7,0.9 -1.7,2 l 0,4 z m 8.6,0.1 c 0.1,1 0.9,1.8 2,1.8 1.5,0 2.2,-0.8 2.2,-2.3 l 0,-1 c -0.3,0.7 -1.1,1.2 -2.2,1.2 -1.9,0 -3.3,-1.5 -3.3,-3.5 0,-2 1.3,-3.5 3.3,-3.5 1.1,0 1.9,0.4 2.2,1.1 l 0,-1 1.4,0 0,6.7 c 0,1.8 -0.9,3.6 -3.6,3.6 -1.8,0 -3.2,-1.1 -3.3,-2.7 l 1.3,-0.4 z m 4.2,-3.9 c 0,-1.4 -0.8,-2.3 -2.1,-2.3 -1.2,0 -2.1,0.9 -2.1,2.3 0,1.4 0.8,2.3 2.1,2.3 1.3,0 2.1,-0.9 2.1,-2.3 z"
       id="path5962"
       inkscape:connector-curvature="0"
       style="fill:#999999" />
    <path
       class="st24"
       d="m 129.3,317.77572 541.4,0"
       id="path5964"
       inkscape:connector-curvature="0"
       style="fill:none;stroke:#cccccc;stroke-linecap:round;stroke-linejoin:round;stroke-miterlimit:10" />
    <rect
       style="opacity:0.5;fill:#b3b3b3;fill-opacity:0;stroke:#404040;stroke-width:3.240201;stroke-linejoin:round;stroke-miterlimit:4;stroke-dasharray:none;stroke-dashoffset:0;stroke-opacity:0.39215686"
       id="rect5865-6"
       width="91.291481"
       height="38.677547"
       x="406.34073"
       y="263.98276" />
    <text
       xml:space="preserve"
       style="font-style:normal;font-variant:normal;font-weight:normal;font-stretch:normal;font-size:20px;line-height:100%;font-family:sans-serif;-inkscape-font-specification:'sans-serif, Normal';text-align:start;letter-spacing:0px;word-spacing:0px;writing-mode:lr-tb;text-anchor:start;fill:#000000;fill-opacity:0.39215686;stroke:none;stroke-width:1px;stroke-linecap:butt;stroke-linejoin:miter;stroke-opacity:1"
       x="420.42145"
       y="289.70444"
       id="text5867-4"
       sodipodi:linespacing="100%"><tspan
         sodipodi:role="line"
         id="tspan5869-5"
         x="420.42145"
         y="289.70444"
         style="font-style:normal;font-variant:normal;font-weight:normal;font-stretch:normal;font-size:17.5px;line-height:100%;font-family:sans-serif;-inkscape-font-specification:'sans-serif, Normal';text-align:start;writing-mode:lr-tb;text-anchor:start;fill:#000000;fill-opacity:0.39215686">master</tspan></text>
    <rect
       style="opacity:1;fill:#b3b3b3;fill-opacity:0;stroke:#404040;stroke-width:3.17217541;stroke-linejoin:round;stroke-miterlimit:4;stroke-dasharray:none;stroke-dashoffset:0;stroke-opacity:1"
       id="rect5865-3-5"
       width="89.086777"
       height="37.987995"
       x="513.37402"
       y="264.32755" />
    <text
       xml:space="preserve"
       style="font-style:normal;font-weight:normal;font-size:40px;line-height:100%;font-family:sans-serif;letter-spacing:0px;word-spacing:0px;fill:#000000;fill-opacity:1;stroke:none;stroke-width:1px;stroke-linecap:butt;stroke-linejoin:miter;stroke-opacity:1"
       x="526.99921"
       y="290.04443"
       id="text5867-0-5"
       sodipodi:linespacing="100%"><tspan
         sodipodi:role="line"
         id="tspan5869-7-6"
         x="526.99921"
         y="290.04443"
         style="font-style:normal;font-variant:normal;font-weight:normal;font-stretch:normal;font-size:17.5px;line-height:100%;font-family:sans-serif;-inkscape-font-specification:'sans-serif, Normal';text-align:start;writing-mode:lr-tb;text-anchor:start;fill:#000000;fill-opacity:1">master</tspan></text>
    <rect
       style="opacity:1;fill:#b3b3b3;fill-opacity:0;stroke:#404040;stroke-width:3.17217541;stroke-linejoin:round;stroke-miterlimit:4;stroke-dasharray:none;stroke-dashoffset:0;stroke-opacity:1"
       id="rect5865-3-5-0"
       width="89.086777"
       height="37.987995"
       x="411.82996"
       y="559.39117" />
    <text
       xml:space="preserve"
       style="font-style:normal;font-weight:normal;font-size:40px;line-height:100%;font-family:sans-serif;letter-spacing:0px;word-spacing:0px;fill:#000000;fill-opacity:1;stroke:none;stroke-width:1px;stroke-linecap:butt;stroke-linejoin:miter;stroke-opacity:1"
       x="425.45514"
       y="585.8269"
       id="text5867-0-5-6"
       sodipodi:linespacing="100%"><tspan
         sodipodi:role="line"
         id="tspan5869-7-6-2"
         x="425.45514"
         y="585.8269"
         style="font-style:normal;font-variant:normal;font-weight:normal;font-stretch:normal;font-size:17.5px;line-height:100%;font-family:sans-serif;-inkscape-font-specification:'sans-serif, Normal';text-align:start;writing-mode:lr-tb;text-anchor:start;fill:#000000;fill-opacity:1">master</tspan></text>
    <path
       inkscape:connector-curvature="0"
       class="st11"
       d="m 455.58003,471.70135 0,30.22391 m -9.73205,-19.03463 9.73205,-13.89013 9.64272,13.89013"
       id="path9-3-8-8-8"
       style="fill:none;stroke:#404040;stroke-width:4.28637266;stroke-linecap:round;stroke-linejoin:round;stroke-miterlimit:10"
       sodipodi:nodetypes="ccccc" />
    <rect
       style="opacity:1;fill:#b3b3b3;fill-opacity:0;stroke:#404040;stroke-width:3.31573081;stroke-linejoin:round;stroke-miterlimit:4;stroke-dasharray:none;stroke-dashoffset:0;stroke-opacity:1"
       id="rect5865-3-9"
       width="90.458374"
       height="40.874744"
       x="411.23035"
       y="512.22449" />
    <text
       xml:space="preserve"
       style="font-style:normal;font-weight:normal;font-size:40px;line-height:100%;font-family:sans-serif;letter-spacing:0px;word-spacing:0px;fill:#000000;fill-opacity:1;stroke:none;stroke-width:1px;stroke-linecap:butt;stroke-linejoin:miter;stroke-opacity:1"
       x="431.27332"
       y="540.37628"
       id="text5867-0-50"
       sodipodi:linespacing="100%"><tspan
         sodipodi:role="line"
         id="tspan5869-7-2"
         x="431.27332"
         y="540.37628"
         style="font-style:normal;font-variant:normal;font-weight:normal;font-stretch:normal;font-size:17.5px;line-height:100%;font-family:sans-serif;-inkscape-font-specification:'sans-serif, Normal';text-align:start;writing-mode:lr-tb;text-anchor:start;fill:#000000;fill-opacity:1">HEAD</tspan></text>
    <rect
       style="opacity:0.5;fill:#b3b3b3;fill-opacity:0;stroke:#404040;stroke-width:3.240201;stroke-linejoin:round;stroke-miterlimit:4;stroke-dasharray:none;stroke-dashoffset:0;stroke-opacity:0.39215686"
       id="rect5865-6-7"
       width="91.291481"
       height="38.677547"
       x="524.0155"
       y="559.04639" />
    <text
       xml:space="preserve"
       style="font-style:normal;font-variant:normal;font-weight:normal;font-stretch:normal;font-size:20px;line-height:100%;font-family:sans-serif;-inkscape-font-specification:'sans-serif, Normal';text-align:start;letter-spacing:0px;word-spacing:0px;writing-mode:lr-tb;text-anchor:start;fill:#000000;fill-opacity:0.39215686;stroke:none;stroke-width:1px;stroke-linecap:butt;stroke-linejoin:miter;stroke-opacity:1"
       x="539.60663"
       y="585.8269"
       id="text5867-4-2"
       sodipodi:linespacing="100%"><tspan
         sodipodi:role="line"
         id="tspan5869-5-8"
         x="539.60663"
         y="585.8269"
         style="font-style:normal;font-variant:normal;font-weight:normal;font-stretch:normal;font-size:17.5px;line-height:100%;font-family:sans-serif;-inkscape-font-specification:'sans-serif, Normal';text-align:start;writing-mode:lr-tb;text-anchor:start;fill:#000000;fill-opacity:0.39215686">master</tspan></text>
    <path
       inkscape:connector-curvature="0"
       class="st11"
       d="m 566.07775,471.7278 0,30.16533 m -10.03989,-18.99774 10.03989,-13.86321 9.94777,13.86321"
       id="path9-3-8-1"
       style="fill:none;stroke:#404040;stroke-width:4.34941912;stroke-linecap:round;stroke-linejoin:round;stroke-miterlimit:10;stroke-opacity:0.39215686"
       sodipodi:nodetypes="ccccc" />
    <rect
       style="opacity:0.5;fill:#b3b3b3;fill-opacity:0;stroke:#404040;stroke-width:3.31245065;stroke-linejoin:round;stroke-miterlimit:4;stroke-dasharray:none;stroke-dashoffset:0;stroke-opacity:0.39215686"
       id="rect5865-7"
       width="91.976807"
       height="40.120445"
       x="523.38025"
       y="512.60162" />
    <text
       xml:space="preserve"
       style="font-style:normal;font-variant:normal;font-weight:normal;font-stretch:normal;font-size:20px;line-height:100%;font-family:sans-serif;-inkscape-font-specification:'sans-serif, Normal';text-align:start;letter-spacing:0px;word-spacing:0px;writing-mode:lr-tb;text-anchor:start;fill:#000000;fill-opacity:0.39215686;stroke:none;stroke-width:1px;stroke-linecap:butt;stroke-linejoin:miter;stroke-opacity:1"
       x="543.4248"
       y="540.37628"
       id="text5867-7"
       sodipodi:linespacing="100%"><tspan
         sodipodi:role="line"
         id="tspan5869-9"
         x="543.4248"
         y="540.37628"
         style="font-style:normal;font-variant:normal;font-weight:normal;font-stretch:normal;font-size:17.5px;line-height:100%;font-family:sans-serif;-inkscape-font-specification:'sans-serif, Normal';text-align:start;writing-mode:lr-tb;text-anchor:start;fill:#000000;fill-opacity:0.39215686">HEAD</tspan></text>
  </g>
  <g
     id="advanced_x5F_undoing_x5F_6"
     transform="matrix(1.324117,0,0,1.2425788,-170.53684,-94.791403)">
    <path
       class="st25"
       d="m 369.3,408.79999 -1.6,0 0,4.3 -1.5,0 0,-10.6 4,0 c 2,0 3.3,1.4 3.3,3.2 0,1.5 -1,2.7 -2.6,3 l 2.5,4.5 -1.7,0 -2.4,-4.4 z m 0.7,-1.3 c 1.2,0 2,-0.7 2,-1.8 0,-1.1 -0.8,-1.8 -2,-1.8 l -2.2,0 0,3.6 2.2,0 z m 12.1,3.6 c -0.4,1.3 -1.6,2.3 -3.2,2.3 -1.9,0 -3.6,-1.4 -3.6,-3.9 0,-2.3 1.6,-3.8 3.5,-3.8 2.2,0 3.5,1.5 3.5,3.8 l 0,0.4 -5.4,0 c 0,1.3 1,2.2 2.2,2.2 1.2,0 1.8,-0.6 2,-1.5 l 1,0.5 z m -1.4,-2.3 c 0,-1 -0.7,-1.8 -2,-1.8 -1.2,0 -1.9,0.9 -2,1.8 l 4,0 z m 4.6,2 c 0.1,0.8 0.7,1.3 1.7,1.3 0.8,0 1.2,-0.4 1.2,-1 0,-0.5 -0.3,-0.8 -0.9,-0.9 l -1.3,-0.2 c -1.1,-0.2 -1.8,-1 -1.8,-2 0,-1.2 1.2,-2.3 2.6,-2.3 2,0 2.6,1.3 2.7,1.9 l -1.2,0.5 c -0.1,-0.4 -0.4,-1.2 -1.5,-1.2 -0.7,0 -1.2,0.5 -1.2,1 0,0.4 0.3,0.8 0.8,0.9 l 1.2,0.3 c 1.3,0.3 2,1.1 2,2.1 0,1 -0.9,2.2 -2.6,2.2 -2,0 -2.8,-1.3 -2.9,-2.1 l 1.2,-0.5 z m 13.1,0.3 c -0.4,1.3 -1.6,2.3 -3.2,2.3 -1.9,0 -3.6,-1.4 -3.6,-3.9 0,-2.3 1.6,-3.8 3.5,-3.8 2.2,0 3.5,1.5 3.5,3.8 l 0,0.4 -5.6,0 c 0,1.3 1,2.2 2.2,2.2 1.2,0 1.8,-0.6 2,-1.5 l 1.2,0.5 z m -1.4,-2.3 c 0,-1 -0.7,-1.8 -2,-1.8 -1.2,0 -1.9,0.9 -2,1.8 l 4,0 z m 5.9,-2.9 1.6,0 0,1.3 -1.6,0 0,3.8 c 0,0.7 0.3,1 1,1 0.2,0 0.4,0 0.6,-0.1 l 0,1.2 c -0.1,0 -0.5,0.1 -1,0.1 -1.2,0 -2,-0.8 -2,-2.1 l 0,-4 -1.4,0 0,-1.3 0.4,0 c 0.8,0 1.1,-0.5 1.1,-1.1 l 0,-1.2 1.3,0 0,2.4 z m 6.1,0 1.6,0 0,1.3 -1.6,0 0,3.8 c 0,0.7 0.3,1 1,1 0.2,0 0.4,0 0.6,-0.1 l 0,1.2 c -0.1,0 -0.5,0.1 -1,0.1 -1.2,0 -2,-0.8 -2,-2.1 l 0,-4 -1.4,0 0,-1.3 0.4,0 c 0.8,0 1.1,-0.5 1.1,-1.1 l 0,-1.2 1.3,0 0,2.4 z m 4.9,-3.7 c 0.6,0 1,0.4 1,1 0,0.6 -0.5,1 -1,1 -0.6,0 -1,-0.5 -1,-1 0,-0.6 0.4,-1 1,-1 z m -0.7,10.9 0,-7.2 1.4,0 0,7.2 -1.4,0 z m 5.9,0 -1.4,0 0,-7.2 1.4,0 0,1 c 0.5,-0.9 1.4,-1.2 2.2,-1.2 1.7,0 2.6,1.2 2.6,2.8 l 0,4.6 -1.4,0 0,-4.3 c 0,-1 -0.4,-1.8 -1.7,-1.8 -1.1,0 -1.7,0.9 -1.7,2 l 0,4.1 z m 8.6,0.1 c 0.1,1 0.9,1.8 2,1.8 1.5,0 2.2,-0.8 2.2,-2.3 l 0,-1 c -0.3,0.7 -1.1,1.2 -2.2,1.2 -1.9,0 -3.3,-1.5 -3.3,-3.5 0,-2 1.3,-3.5 3.3,-3.5 1.1,0 1.9,0.4 2.2,1.1 l 0,-1 1.4,0 0,6.7 c 0,1.8 -0.9,3.6 -3.6,3.6 -1.8,0 -3.1,-1.1 -3.3,-2.7 l 1.3,-0.4 z m 4.3,-3.9 c 0,-1.4 -0.8,-2.3 -2.1,-2.3 -1.2,0 -2.1,0.9 -2.1,2.3 0,1.4 0.8,2.3 2.1,2.3 1.2,0 2.1,-0.9 2.1,-2.3 z"
       id="path5967"
       inkscape:connector-curvature="0"
       style="fill:#999999" />
    <path
       class="st4"
       d="m 256.1,502.63232 287.8,0"
       id="path5969"
       inkscape:connector-curvature="0"
       style="fill:#ffffff;stroke:#404040;stroke-width:4;stroke-linecap:round;stroke-linejoin:round;stroke-miterlimit:10" />
    <circle
       class="st4"
       cx="235.10001"
       cy="502.63239"
       r="21"
       id="circle5971"
       style="fill:#ffffff;stroke:#404040;stroke-width:4;stroke-linecap:round;stroke-linejoin:round;stroke-miterlimit:10" />
    <circle
       class="st29"
       cx="455"
       cy="502.63239"
       r="21"
       id="circle5973"
       style="fill:#59afe1;stroke:#404040;stroke-width:4;stroke-linejoin:round;stroke-miterlimit:10" />
    <circle
       class="st4"
       cx="345"
       cy="502.63239"
       r="21"
       id="circle5975"
       style="fill:#ffffff;stroke:#404040;stroke-width:4;stroke-linecap:round;stroke-linejoin:round;stroke-miterlimit:10" />
    <path
       class="st39"
       d="m 583.9,523.63232 -38,0 c -1.1,0 -2,-0.9 -2,-2 l 0,-38 c 0,-1.1 0.9,-2 2,-2 l 38,0 c 1.1,0 2,0.9 2,2 l 0,38 c 0,1.1 -0.9,2 -2,2 z"
       id="path5977"
       inkscape:connector-curvature="0"
       style="fill:#e24b88;stroke:#404040;stroke-width:4;stroke-linecap:round;stroke-linejoin:round;stroke-miterlimit:10" />
    <path
       class="st11"
       d="m 576,491.83232 -10.9,10.8 -10.8,-10.8 m 0,21.7 10.8,-10.9 10.9,10.9 m -88.7,-58 -15.3,0 0,-15.4 m 2,13.2 c 10,-9.5 23.5,-15.3 38.3,-15.3 14.9,0 28.4,5.8 38.3,15.3"
       id="path5979"
       inkscape:connector-curvature="0"
       style="fill:none;stroke:#404040;stroke-width:4;stroke-linecap:round;stroke-linejoin:round;stroke-miterlimit:10" />
  </g>
  <path
     inkscape:connector-curvature="0"
     class="st11"
     d="m 423.20116,210.62428 0,37.48281 m -13.29398,-23.60619 13.29398,-17.22613 13.17201,17.22613"
     id="path9-3-8"
     style="fill:none;stroke:#404040;stroke-width:5.57900095;stroke-linecap:round;stroke-linejoin:round;stroke-miterlimit:10;stroke-opacity:0.39215686"
     sodipodi:nodetypes="ccccc" />
  <path
     inkscape:connector-curvature="0"
     class="st11"
     d="m 567.16067,208.90107 0,37.5556 m -12.88638,-23.65203 12.88638,-17.25958 12.76809,17.25958"
     id="path9-3-8-8"
     style="fill:none;stroke:#404040;stroke-width:5.4981308;stroke-linecap:round;stroke-linejoin:round;stroke-miterlimit:10"
     sodipodi:nodetypes="ccccc" />
  <rect
     style="opacity:0.5;fill:#b3b3b3;fill-opacity:0;stroke:#404040;stroke-width:4.24888086;stroke-linejoin:round;stroke-miterlimit:4;stroke-dasharray:none;stroke-dashoffset:0;stroke-opacity:0.39215686"
     id="rect5865"
     width="121.78806"
     height="49.852818"
     x="366.66467"
     y="258.13086" />
  <text
     xml:space="preserve"
     style="font-style:normal;font-variant:normal;font-weight:normal;font-stretch:normal;font-size:25.65400505px;line-height:100%;font-family:sans-serif;-inkscape-font-specification:'sans-serif, Normal';text-align:start;letter-spacing:0px;word-spacing:0px;writing-mode:lr-tb;text-anchor:start;fill:#000000;fill-opacity:0.39215686;stroke:none;stroke-width:1px;stroke-linecap:butt;stroke-linejoin:miter;stroke-opacity:1"
     x="380.90704"
     y="301.1701"
     id="text5867"
     sodipodi:linespacing="100%"
     transform="scale(1.0322888,0.96872115)"><tspan
       sodipodi:role="line"
       id="tspan5869"
       x="380.90704"
       y="301.1701"
       style="font-style:normal;font-variant:normal;font-weight:normal;font-stretch:normal;font-size:22.44725418px;line-height:100%;font-family:sans-serif;-inkscape-font-specification:'sans-serif, Normal';text-align:start;writing-mode:lr-tb;text-anchor:start;fill:#000000;fill-opacity:0.39215686">HEAD</tspan></text>
  <rect
     style="opacity:1;fill:#b3b3b3;fill-opacity:0;stroke:#404040;stroke-width:4.25308847;stroke-linejoin:round;stroke-miterlimit:4;stroke-dasharray:none;stroke-dashoffset:0;stroke-opacity:1"
     id="rect5865-3"
     width="119.77747"
     height="50.790092"
     x="508.43652"
     y="257.66217" />
  <text
     xml:space="preserve"
     style="font-style:normal;font-weight:normal;font-size:51.3080101px;line-height:100%;font-family:sans-serif;letter-spacing:0px;word-spacing:0px;fill:#000000;fill-opacity:1;stroke:none;stroke-width:1px;stroke-linecap:butt;stroke-linejoin:miter;stroke-opacity:1"
     x="518.24231"
     y="301.1701"
     id="text5867-0"
     sodipodi:linespacing="100%"
     transform="scale(1.0322888,0.96872115)"><tspan
       sodipodi:role="line"
       id="tspan5869-7"
       x="518.24231"
       y="301.1701"
       style="font-style:normal;font-variant:normal;font-weight:normal;font-stretch:normal;font-size:22.44725418px;line-height:100%;font-family:sans-serif;-inkscape-font-specification:'sans-serif, Normal';text-align:start;writing-mode:lr-tb;text-anchor:start;fill:#000000;fill-opacity:1">HEAD</tspan></text>
</svg>
