<?xml version="1.0" encoding="UTF-8" standalone="no"?>
<!-- Created with Inkscape (http://www.inkscape.org/) -->

<svg
   xmlns:dc="http://purl.org/dc/elements/1.1/"
   xmlns:cc="http://creativecommons.org/ns#"
   xmlns:rdf="http://www.w3.org/1999/02/22-rdf-syntax-ns#"
   xmlns:svg="http://www.w3.org/2000/svg"
   xmlns="http://www.w3.org/2000/svg"
   xmlns:sodipodi="http://sodipodi.sourceforge.net/DTD/sodipodi-0.dtd"
   xmlns:inkscape="http://www.inkscape.org/namespaces/inkscape"
   width="151.29482mm"
   height="93.17038mm"
   viewBox="0 0 536.08399 330.13126"
   id="svg4865"
   version="1.1"
   inkscape:version="0.91 r"
   sodipodi:docname="git-reset.svg">
  <defs
     id="defs4867" />
  <sodipodi:namedview
     id="base"
     pagecolor="#ffffff"
     bordercolor="#666666"
     borderopacity="1.0"
     inkscape:pageopacity="0.0"
     inkscape:pageshadow="2"
     inkscape:zoom="1.4"
     inkscape:cx="390.95419"
     inkscape:cy="166.6857"
     inkscape:document-units="px"
     inkscape:current-layer="layer1"
     showgrid="false"
     fit-margin-top="0"
     fit-margin-left="0"
     fit-margin-right="0"
     fit-margin-bottom="0"
     inkscape:window-width="1920"
     inkscape:window-height="1028"
     inkscape:window-x="0"
     inkscape:window-y="0"
     inkscape:window-maximized="1" />
  <metadata
     id="metadata4870">
    <rdf:RDF>
      <cc:Work
         rdf:about="">
        <dc:format>image/svg+xml</dc:format>
        <dc:type
           rdf:resource="http://purl.org/dc/dcmitype/StillImage" />
        <dc:title></dc:title>
      </cc:Work>
    </rdf:RDF>
  </metadata>
  <g
     inkscape:label="Layer 1"
     inkscape:groupmode="layer"
     id="layer1"
     transform="translate(1979.4706,-515.868)">
    <rect
       style="opacity:1;fill:#b3b3b3;fill-opacity:0;stroke:#404040;stroke-width:4.0689497;stroke-linejoin:round;stroke-miterlimit:4;stroke-dasharray:none;stroke-dashoffset:0;stroke-opacity:1"
       id="rect5865-3-5-0"
       width="117.96132"
       height="47.203079"
       x="-1715.0048"
       y="796.28967" />
    <text
       transform="scale(1.0322888,0.96872116)"
       xml:space="preserve"
       style="font-style:normal;font-weight:normal;font-size:51.30800629px;line-height:100%;font-family:sans-serif;letter-spacing:0px;word-spacing:0px;fill:#000000;fill-opacity:1;stroke:none;stroke-width:1px;stroke-linecap:butt;stroke-linejoin:miter;stroke-opacity:1"
       x="-1643.8844"
       y="855.91003"
       id="text5867-0-5-6"
       sodipodi:linespacing="100%"><tspan
         sodipodi:role="line"
         id="tspan5869-7-6-2"
         x="-1643.8844"
         y="855.91003"
         style="font-style:normal;font-variant:normal;font-weight:normal;font-stretch:normal;font-size:22.44725227px;line-height:100%;font-family:sans-serif;-inkscape-font-specification:'sans-serif, Normal';text-align:start;writing-mode:lr-tb;text-anchor:start;fill:#000000;fill-opacity:1">master</tspan></text>
    <path
       inkscape:connector-curvature="0"
       class="st11"
       d="m -1657.0745,687.32817 0,37.55559 m -12.8864,-23.65202 12.8864,-17.25958 12.7681,17.25958"
       id="path9-3-8-8-8"
       style="fill:none;stroke:#404040;stroke-width:5.4981308;stroke-linecap:round;stroke-linejoin:round;stroke-miterlimit:10"
       sodipodi:nodetypes="ccccc" />
    <rect
       style="opacity:1;fill:#b3b3b3;fill-opacity:0;stroke:#404040;stroke-width:4.25308847;stroke-linejoin:round;stroke-miterlimit:4;stroke-dasharray:none;stroke-dashoffset:0;stroke-opacity:1"
       id="rect5865-3-9"
       width="119.77747"
       height="50.790092"
       x="-1715.7987"
       y="737.6814" />
    <text
       transform="scale(1.0322888,0.96872116)"
       xml:space="preserve"
       style="font-style:normal;font-weight:normal;font-size:51.30800629px;line-height:100%;font-family:sans-serif;letter-spacing:0px;word-spacing:0px;fill:#000000;fill-opacity:1;stroke:none;stroke-width:1px;stroke-linecap:butt;stroke-linejoin:miter;stroke-opacity:1"
       x="-1636.4214"
       y="797.61053"
       id="text5867-0-50"
       sodipodi:linespacing="100%"><tspan
         sodipodi:role="line"
         id="tspan5869-7-2"
         x="-1636.4214"
         y="797.61053"
         style="font-style:normal;font-variant:normal;font-weight:normal;font-stretch:normal;font-size:22.44725227px;line-height:100%;font-family:sans-serif;-inkscape-font-specification:'sans-serif, Normal';text-align:start;writing-mode:lr-tb;text-anchor:start;fill:#000000;fill-opacity:1">HEAD</tspan></text>
    <rect
       style="opacity:0.5;fill:#b3b3b3;fill-opacity:0;stroke:#404040;stroke-width:4.15620613;stroke-linejoin:round;stroke-miterlimit:4;stroke-dasharray:none;stroke-dashoffset:0;stroke-opacity:0.39215686"
       id="rect5865-6-7"
       width="120.8806"
       height="48.059902"
       x="-1566.4579"
       y="795.86127" />
    <text
       transform="scale(1.0322888,0.96872116)"
       xml:space="preserve"
       style="font-style:normal;font-variant:normal;font-weight:normal;font-stretch:normal;font-size:25.65400314px;line-height:100%;font-family:sans-serif;-inkscape-font-specification:'sans-serif, Normal';text-align:start;letter-spacing:0px;word-spacing:0px;writing-mode:lr-tb;text-anchor:start;fill:#000000;fill-opacity:0.39215686;stroke:none;stroke-width:1px;stroke-linecap:butt;stroke-linejoin:miter;stroke-opacity:1"
       x="-1497.4622"
       y="855.91003"
       id="text5867-4-2"
       sodipodi:linespacing="100%"><tspan
         sodipodi:role="line"
         id="tspan5869-5-8"
         x="-1497.4622"
         y="855.91003"
         style="font-style:normal;font-variant:normal;font-weight:normal;font-stretch:normal;font-size:22.44725227px;line-height:100%;font-family:sans-serif;-inkscape-font-specification:'sans-serif, Normal';text-align:start;writing-mode:lr-tb;text-anchor:start;fill:#000000;fill-opacity:0.39215686">master</tspan></text>
    <path
       inkscape:connector-curvature="0"
       class="st11"
       d="m -1510.7626,687.36104 0,37.4828 m -13.294,-23.60619 13.294,-17.22613 13.172,17.22613"
       id="path9-3-8-1"
       style="fill:none;stroke:#404040;stroke-width:5.57900047;stroke-linecap:round;stroke-linejoin:round;stroke-miterlimit:10;stroke-opacity:0.39215686"
       sodipodi:nodetypes="ccccc" />
    <rect
       style="opacity:0.5;fill:#b3b3b3;fill-opacity:0;stroke:#404040;stroke-width:4.24888086;stroke-linejoin:round;stroke-miterlimit:4;stroke-dasharray:none;stroke-dashoffset:0;stroke-opacity:0.39215686"
       id="rect5865-7"
       width="121.78806"
       height="49.852814"
       x="-1567.2991"
       y="738.14996" />
    <text
       transform="scale(1.0322888,0.96872116)"
       xml:space="preserve"
       style="font-style:normal;font-variant:normal;font-weight:normal;font-stretch:normal;font-size:25.65400314px;line-height:100%;font-family:sans-serif;-inkscape-font-specification:'sans-serif, Normal';text-align:start;letter-spacing:0px;word-spacing:0px;writing-mode:lr-tb;text-anchor:start;fill:#000000;fill-opacity:0.39215686;stroke:none;stroke-width:1px;stroke-linecap:butt;stroke-linejoin:miter;stroke-opacity:1"
       x="-1492.5646"
       y="797.61053"
       id="text5867-7"
       sodipodi:linespacing="100%"><tspan
         sodipodi:role="line"
         id="tspan5869-9"
         x="-1492.5646"
         y="797.61053"
         style="font-style:normal;font-variant:normal;font-weight:normal;font-stretch:normal;font-size:22.44725227px;line-height:100%;font-family:sans-serif;-inkscape-font-specification:'sans-serif, Normal';text-align:start;writing-mode:lr-tb;text-anchor:start;fill:#000000;fill-opacity:0.39215686">HEAD</tspan></text>
    <g
       id="advanced_x5F_undoing_x5F_6"
       transform="matrix(1.324117,0,0,1.2425788,-2260.3158,16.102822)">
      <path
         class="st25"
         d="m 369.3,408.79999 -1.6,0 0,4.3 -1.5,0 0,-10.6 4,0 c 2,0 3.3,1.4 3.3,3.2 0,1.5 -1,2.7 -2.6,3 l 2.5,4.5 -1.7,0 -2.4,-4.4 z m 0.7,-1.3 c 1.2,0 2,-0.7 2,-1.8 0,-1.1 -0.8,-1.8 -2,-1.8 l -2.2,0 0,3.6 2.2,0 z m 12.1,3.6 c -0.4,1.3 -1.6,2.3 -3.2,2.3 -1.9,0 -3.6,-1.4 -3.6,-3.9 0,-2.3 1.6,-3.8 3.5,-3.8 2.2,0 3.5,1.5 3.5,3.8 l 0,0.4 -5.4,0 c 0,1.3 1,2.2 2.2,2.2 1.2,0 1.8,-0.6 2,-1.5 l 1,0.5 z m -1.4,-2.3 c 0,-1 -0.7,-1.8 -2,-1.8 -1.2,0 -1.9,0.9 -2,1.8 l 4,0 z m 4.6,2 c 0.1,0.8 0.7,1.3 1.7,1.3 0.8,0 1.2,-0.4 1.2,-1 0,-0.5 -0.3,-0.8 -0.9,-0.9 l -1.3,-0.2 c -1.1,-0.2 -1.8,-1 -1.8,-2 0,-1.2 1.2,-2.3 2.6,-2.3 2,0 2.6,1.3 2.7,1.9 l -1.2,0.5 c -0.1,-0.4 -0.4,-1.2 -1.5,-1.2 -0.7,0 -1.2,0.5 -1.2,1 0,0.4 0.3,0.8 0.8,0.9 l 1.2,0.3 c 1.3,0.3 2,1.1 2,2.1 0,1 -0.9,2.2 -2.6,2.2 -2,0 -2.8,-1.3 -2.9,-2.1 l 1.2,-0.5 z m 13.1,0.3 c -0.4,1.3 -1.6,2.3 -3.2,2.3 -1.9,0 -3.6,-1.4 -3.6,-3.9 0,-2.3 1.6,-3.8 3.5,-3.8 2.2,0 3.5,1.5 3.5,3.8 l 0,0.4 -5.6,0 c 0,1.3 1,2.2 2.2,2.2 1.2,0 1.8,-0.6 2,-1.5 l 1.2,0.5 z m -1.4,-2.3 c 0,-1 -0.7,-1.8 -2,-1.8 -1.2,0 -1.9,0.9 -2,1.8 l 4,0 z m 5.9,-2.9 1.6,0 0,1.3 -1.6,0 0,3.8 c 0,0.7 0.3,1 1,1 0.2,0 0.4,0 0.6,-0.1 l 0,1.2 c -0.1,0 -0.5,0.1 -1,0.1 -1.2,0 -2,-0.8 -2,-2.1 l 0,-4 -1.4,0 0,-1.3 0.4,0 c 0.8,0 1.1,-0.5 1.1,-1.1 l 0,-1.2 1.3,0 0,2.4 z m 6.1,0 1.6,0 0,1.3 -1.6,0 0,3.8 c 0,0.7 0.3,1 1,1 0.2,0 0.4,0 0.6,-0.1 l 0,1.2 c -0.1,0 -0.5,0.1 -1,0.1 -1.2,0 -2,-0.8 -2,-2.1 l 0,-4 -1.4,0 0,-1.3 0.4,0 c 0.8,0 1.1,-0.5 1.1,-1.1 l 0,-1.2 1.3,0 0,2.4 z m 4.9,-3.7 c 0.6,0 1,0.4 1,1 0,0.6 -0.5,1 -1,1 -0.6,0 -1,-0.5 -1,-1 0,-0.6 0.4,-1 1,-1 z m -0.7,10.9 0,-7.2 1.4,0 0,7.2 -1.4,0 z m 5.9,0 -1.4,0 0,-7.2 1.4,0 0,1 c 0.5,-0.9 1.4,-1.2 2.2,-1.2 1.7,0 2.6,1.2 2.6,2.8 l 0,4.6 -1.4,0 0,-4.3 c 0,-1 -0.4,-1.8 -1.7,-1.8 -1.1,0 -1.7,0.9 -1.7,2 l 0,4.1 z m 8.6,0.1 c 0.1,1 0.9,1.8 2,1.8 1.5,0 2.2,-0.8 2.2,-2.3 l 0,-1 c -0.3,0.7 -1.1,1.2 -2.2,1.2 -1.9,0 -3.3,-1.5 -3.3,-3.5 0,-2 1.3,-3.5 3.3,-3.5 1.1,0 1.9,0.4 2.2,1.1 l 0,-1 1.4,0 0,6.7 c 0,1.8 -0.9,3.6 -3.6,3.6 -1.8,0 -3.1,-1.1 -3.3,-2.7 l 1.3,-0.4 z m 4.3,-3.9 c 0,-1.4 -0.8,-2.3 -2.1,-2.3 -1.2,0 -2.1,0.9 -2.1,2.3 0,1.4 0.8,2.3 2.1,2.3 1.2,0 2.1,-0.9 2.1,-2.3 z"
         id="path5967"
         inkscape:connector-curvature="0"
         style="fill:#999999" />
      <path
         class="st4"
         d="m 256.1,502.63232 287.8,0"
         id="path5969"
         inkscape:connector-curvature="0"
         style="fill:#ffffff;stroke:#404040;stroke-width:4;stroke-linecap:round;stroke-linejoin:round;stroke-miterlimit:10" />
      <circle
         class="st4"
         cx="235.10001"
         cy="502.63239"
         r="21"
         id="circle5971"
         style="fill:#ffffff;stroke:#404040;stroke-width:4;stroke-linecap:round;stroke-linejoin:round;stroke-miterlimit:10" />
      <circle
         class="st29"
         cx="455"
         cy="502.63239"
         r="21"
         id="circle5973"
         style="fill:#59afe1;stroke:#404040;stroke-width:4;stroke-linejoin:round;stroke-miterlimit:10" />
      <circle
         class="st4"
         cx="345"
         cy="502.63239"
         r="21"
         id="circle5975"
         style="fill:#ffffff;stroke:#404040;stroke-width:4;stroke-linecap:round;stroke-linejoin:round;stroke-miterlimit:10" />
      <path
         class="st39"
         d="m 583.9,523.63232 -38,0 c -1.1,0 -2,-0.9 -2,-2 l 0,-38 c 0,-1.1 0.9,-2 2,-2 l 38,0 c 1.1,0 2,0.9 2,2 l 0,38 c 0,1.1 -0.9,2 -2,2 z"
         id="path5977"
         inkscape:connector-curvature="0"
         style="fill:#e24b88;stroke:#404040;stroke-width:4;stroke-linecap:round;stroke-linejoin:round;stroke-miterlimit:10" />
      <path
         class="st11"
         d="m 576,491.83232 -10.9,10.8 -10.8,-10.8 m 0,21.7 10.8,-10.9 10.9,10.9 m -88.7,-58 -15.3,0 0,-15.4 m 2,13.2 c 10,-9.5 23.5,-15.3 38.3,-15.3 14.9,0 28.4,5.8 38.3,15.3"
         id="path5979"
         inkscape:connector-curvature="0"
         style="fill:none;stroke:#404040;stroke-width:4;stroke-linecap:round;stroke-linejoin:round;stroke-miterlimit:10" />
    </g>
  </g>
</svg>
