<?xml version="1.0" encoding="UTF-8" standalone="no"?>
<svg
   xmlns:dc="http://purl.org/dc/elements/1.1/"
   xmlns:cc="http://creativecommons.org/ns#"
   xmlns:rdf="http://www.w3.org/1999/02/22-rdf-syntax-ns#"
   xmlns:svg="http://www.w3.org/2000/svg"
   xmlns="http://www.w3.org/2000/svg"
   xmlns:sodipodi="http://sodipodi.sourceforge.net/DTD/sodipodi-0.dtd"
   xmlns:inkscape="http://www.inkscape.org/namespaces/inkscape"
   viewBox="0 0 724.79999 526.49999"
   id="svg2"
   version="1.1"
   inkscape:version="0.91 r"
   sodipodi:docname="merge-without-rebase.svg"
   width="724.79999"
   height="526.5"
   inkscape:export-filename="/home/mbexegc2/Dropbox (The University of Manchester)/rit-training/course-material/git/git-course/fig/slideshow/merge-without-rebase.png"
   inkscape:export-xdpi="300"
   inkscape:export-ydpi="300">
  <metadata
     id="metadata136">
    <rdf:RDF>
      <cc:Work
         rdf:about="">
        <dc:format>image/svg+xml</dc:format>
        <dc:type
           rdf:resource="http://purl.org/dc/dcmitype/StillImage" />
        <dc:title />
      </cc:Work>
    </rdf:RDF>
  </metadata>
  <defs
     id="defs134" />
  <sodipodi:namedview
     pagecolor="#ffffff"
     bordercolor="#666666"
     borderopacity="1"
     objecttolerance="10"
     gridtolerance="10"
     guidetolerance="10"
     inkscape:pageopacity="1"
     inkscape:pageshadow="2"
     inkscape:window-width="1920"
     inkscape:window-height="1028"
     id="namedview132"
     showgrid="false"
     inkscape:zoom="1.4331912"
     inkscape:cx="371.80653"
     inkscape:cy="329.43448"
     inkscape:window-x="0"
     inkscape:window-y="0"
     inkscape:window-maximized="1"
     inkscape:current-layer="svg2"
     fit-margin-top="0"
     fit-margin-left="0"
     fit-margin-right="0"
     fit-margin-bottom="0" />
  <style
     id="style4">.st0{display:none;} .st1{display:inline;} .st2{fill:#FFFFFF;} .st3{fill:none;stroke:#9882CE;stroke-width:4;stroke-miterlimit:10;} .st4{fill:#FFFFFF;stroke:#404040;stroke-width:4;stroke-linejoin:round;stroke-miterlimit:10;} .st5{fill:#4ED1A1;stroke:#404040;stroke-width:4;stroke-linecap:round;stroke-linejoin:round;stroke-miterlimit:10;} .st6{fill:#B3E3FF;stroke:#404040;stroke-width:4;stroke-miterlimit:10;} .st7{fill:#FFFFFF;stroke:#6693ED;stroke-width:4;stroke-miterlimit:10;} .st8{fill:#FFFFFF;stroke:#404040;stroke-width:4;stroke-miterlimit:10;} .st9{fill:#404040;} .st10{fill:#404040;stroke:#404040;stroke-width:4;stroke-linejoin:round;stroke-miterlimit:10;} .st11{fill:none;stroke:#404040;stroke-width:4;stroke-linecap:round;stroke-linejoin:round;stroke-miterlimit:10;} .st12{fill:#999999;} .st13{fill:#B18BE8;stroke:#404040;stroke-width:4;stroke-linecap:round;stroke-linejoin:round;stroke-miterlimit:10;} .st14{fill:none;stroke:#404040;stroke-width:4;stroke-miterlimit:10;} .st15{fill:#4ED1A1;stroke:#404040;stroke-width:4;stroke-miterlimit:10;} .st16{fill:#B3E3FF;stroke:#404040;stroke-width:4;stroke-linejoin:round;stroke-miterlimit:10;} .st17{fill:#FFFFFF;stroke:#404040;stroke-width:4;stroke-linecap:round;stroke-linejoin:round;stroke-miterlimit:10;} .st18{fill:none;stroke:#CCCCCC;stroke-width:4;stroke-linecap:round;stroke-linejoin:round;stroke-miterlimit:10;} .st19{fill:#FFFFFF;stroke:#CCCCCC;stroke-width:4;stroke-linecap:round;stroke-linejoin:round;stroke-miterlimit:10;} .st20{fill:#59AFE1;stroke:#404040;stroke-width:4;stroke-linejoin:round;stroke-miterlimit:10;} .st21{fill:none;stroke:#CCCCCC;stroke-linecap:round;stroke-linejoin:round;stroke-miterlimit:10;}</style>
  <path
     class="st9"
     d="m 331.9,523.3 0,-8.3 -3.6,8.3 -1.3,0 -3.6,-8.3 0,8.3 -1.5,0 0,-10.6 2,0 3.7,8.7 3.8,-8.7 2,0 0,10.6 -1.5,0 z m 11,-2.1 c -0.4,1.3 -1.6,2.3 -3.2,2.3 -1.9,0 -3.6,-1.4 -3.6,-3.9 0,-2.3 1.6,-3.8 3.4,-3.8 2.2,0 3.5,1.5 3.5,3.8 l 0,0.5 -5.4,0 c 0,1.3 1,2.2 2.2,2.2 1.2,0 1.8,-0.6 2,-1.5 l 1.1,0.4 z m -1.4,-2.3 c 0,-1 -0.7,-1.8 -2,-1.8 -1.2,0 -1.9,0.9 -2,1.8 l 4,0 z m 8,-1.4 -0.6,0 c -1.2,0 -2,0.6 -2,2.2 l 0,3.6 -1.4,0 0,-7.2 1.4,0 0,1.3 c 0.5,-1.1 1.4,-1.4 2.2,-1.4 l 0.5,0 0,1.5 z m 3,5.9 c 0.1,1 0.9,1.8 2,1.8 1.5,0 2.2,-0.8 2.2,-2.3 l 0,-1 c -0.3,0.7 -1.1,1.2 -2.2,1.2 -1.9,0 -3.3,-1.5 -3.3,-3.5 0,-1.9 1.3,-3.5 3.3,-3.5 1.1,0 1.9,0.4 2.2,1.1 l 0,-1 1.4,0 0,6.7 c 0,1.8 -0.9,3.6 -3.6,3.6 -1.8,0 -3.1,-1.1 -3.3,-2.7 l 1.3,-0.4 z m 4.3,-4 c 0,-1.4 -0.8,-2.3 -2.1,-2.3 -1.2,0 -2.1,0.9 -2.1,2.3 0,1.4 0.8,2.3 2.1,2.3 1.2,0.1 2.1,-0.9 2.1,-2.3 z m 10.6,1.8 c -0.4,1.3 -1.6,2.3 -3.2,2.3 -1.9,0 -3.6,-1.4 -3.6,-3.9 0,-2.3 1.6,-3.8 3.4,-3.8 2.2,0 3.5,1.5 3.5,3.8 l 0,0.5 -5.4,0 c 0,1.3 1,2.2 2.2,2.2 1.2,0 1.8,-0.6 2,-1.5 l 1.1,0.4 z m -1.4,-2.3 c 0,-1 -0.7,-1.8 -2,-1.8 -1.2,0 -1.9,0.9 -2,1.8 l 4,0 z m 8,-0.9 c 0,-3.6 2.6,-5.5 5.3,-5.5 2.4,0 4.1,1.3 4.7,3.4 l -1.4,0.5 c -0.4,-1.6 -1.6,-2.5 -3.3,-2.5 -1.9,0 -3.8,1.4 -3.8,4.2 0,2.8 1.8,4.2 3.8,4.2 1.8,0 3,-1.1 3.4,-2.5 l 1.3,0.5 c -0.6,2 -2.2,3.4 -4.7,3.4 -2.8,-0.2 -5.3,-2.2 -5.3,-5.7 z m 19,1.7 c 0,2.2 -1.5,3.8 -3.7,3.8 -2.2,0 -3.7,-1.6 -3.7,-3.8 0,-2.2 1.5,-3.8 3.7,-3.8 2.2,0 3.7,1.6 3.7,3.8 z m -1.5,0 c 0,-1.7 -1.1,-2.6 -2.2,-2.6 -1.1,0 -2.2,0.9 -2.2,2.6 0,1.7 1.1,2.6 2.2,2.6 1.1,0 2.2,-0.9 2.2,-2.6 z m 4,3.6 0,-7.2 1.3,0 0,1 c 0.5,-0.8 1.4,-1.2 2.2,-1.2 0.9,0 1.8,0.4 2.2,1.4 0.6,-1 1.5,-1.4 2.4,-1.4 1.3,0 2.5,0.9 2.5,2.7 l 0,4.7 -1.4,0 0,-4.5 c 0,-0.9 -0.5,-1.7 -1.5,-1.7 -1,0 -1.7,0.8 -1.7,1.8 l 0,4.4 -1.4,0 0,-4.5 c 0,-0.9 -0.4,-1.7 -1.5,-1.7 -1,0 -1.7,0.8 -1.7,1.8 l 0,4.3 -1.4,0 z m 13.6,0 0,-7.2 1.3,0 0,1 c 0.5,-0.8 1.4,-1.2 2.2,-1.2 0.9,0 1.8,0.4 2.2,1.4 0.6,-1 1.5,-1.4 2.4,-1.4 1.3,0 2.5,0.9 2.5,2.7 l 0,4.7 -1.4,0 0,-4.5 c 0,-0.9 -0.5,-1.7 -1.5,-1.7 -1,0 -1.7,0.8 -1.7,1.8 l 0,4.4 -1.4,0 0,-4.5 c 0,-0.9 -0.4,-1.7 -1.5,-1.7 -1,0 -1.7,0.8 -1.7,1.8 l 0,4.3 -1.4,0 z m 14.3,-11 c 0.6,0 1,0.5 1,1 0,0.6 -0.4,1 -1,1 -0.6,0 -1,-0.4 -1,-1 0,-0.5 0.5,-1 1,-1 z m -0.7,11 0,-7.2 1.4,0 0,7.2 -1.4,0 z m 6.5,-7.2 1.6,0 0,1.3 -1.6,0 0,3.8 c 0,0.7 0.3,1 1,1 0.2,0 0.4,0 0.6,-0.1 l 0,1.2 c -0.1,0 -0.5,0.1 -1,0.1 -1.2,0 -2,-0.8 -2,-2.1 l 0,-4 -1.4,0 0,-1.3 0.4,0 c 0.8,0 1.1,-0.5 1.1,-1.1 l 0,-1.2 1.3,0 0,2.4 z"
     id="path12"
     inkscape:connector-curvature="0"
     style="fill:#404040" />
  <path
     class="st17"
     d="m 292.7,517.8 13,0 m -11.1,-4.6 9.1,9.2 m 0,-9.2 -9.1,9.2 m 4.6,-11.1 0,13"
     id="path14"
     inkscape:connector-curvature="0"
     style="fill:#ffffff;stroke:#404040;stroke-width:4;stroke-linecap:round;stroke-linejoin:round;stroke-miterlimit:10" />
  <path
     class="st9"
     d="m 284.6,11 0,-8.3 -3.6,8.3 -1.3,0 -3.6,-8.3 0,8.3 -1.5,0 0,-10.6 2,0 3.7,8.7 3.8,-8.7 2,0 0,10.6 -1.5,0 z m 11.1,-2.1 c -0.4,1.3 -1.6,2.3 -3.2,2.3 -1.9,0 -3.6,-1.4 -3.6,-3.9 0,-2.3 1.6,-3.8 3.4,-3.8 2.2,0 3.5,1.5 3.5,3.8 l 0,0.5 -5.4,0 c 0,1.3 1,2.2 2.2,2.2 1.2,0 1.8,-0.6 2,-1.5 l 1.1,0.4 z m -1.4,-2.3 c 0,-1 -0.7,-1.8 -2,-1.8 -1.2,0 -1.9,0.9 -2,1.8 l 4,0 z m 8,-1.4 -0.6,0 c -1.2,0 -2,0.6 -2,2.2 l 0,3.6 -1.4,0 0,-7.2 1.4,0 0,1.3 c 0.5,-1.1 1.4,-1.4 2.2,-1.4 l 0.5,0 0,1.5 z m 3,5.8 c 0.1,1 0.9,1.8 2,1.8 1.5,0 2.2,-0.8 2.2,-2.3 l 0,-1 c -0.3,0.7 -1.1,1.2 -2.2,1.2 -1.9,0 -3.3,-1.5 -3.3,-3.5 0,-1.9 1.3,-3.5 3.3,-3.5 1.1,0 1.9,0.4 2.2,1.1 l 0,-1 1.4,0 0,6.7 c 0,1.8 -0.9,3.6 -3.6,3.6 -1.8,0 -3.1,-1.1 -3.3,-2.7 l 1.3,-0.4 z m 4.2,-3.9 c 0,-1.4 -0.8,-2.3 -2.1,-2.3 -1.2,0 -2.1,0.9 -2.1,2.3 0,1.4 0.8,2.3 2.1,2.3 1.3,0 2.1,-0.9 2.1,-2.3 z m 10.7,1.8 c -0.4,1.3 -1.6,2.3 -3.2,2.3 -1.9,0 -3.6,-1.4 -3.6,-3.9 0,-2.3 1.6,-3.8 3.4,-3.8 2.2,0 3.5,1.5 3.5,3.8 l 0,0.5 -5.4,0 c 0,1.3 1,2.2 2.2,2.2 1.2,0 1.8,-0.6 2,-1.5 l 1.1,0.4 z m -1.5,-2.3 c 0,-1 -0.7,-1.8 -2,-1.8 -1.2,0 -1.9,0.9 -2,1.8 l 4,0 z m 14.1,-2.9 1.9,5.4 1.6,-5.4 1.5,0 -2.3,7.2 -1.5,0 -1.9,-5.5 -1.9,5.5 -1.5,0 -2.4,-7.2 1.5,0 1.6,5.4 1.9,-5.4 1.5,0 z M 340.6,0 c 0.6,0 1,0.5 1,1 0,0.6 -0.4,1 -1,1 -0.6,0 -1,-0.5 -1,-1 0,-0.6 0.4,-1 1,-1 z m -0.7,11 0,-7.2 1.4,0 0,7.2 -1.4,0 z m 6.4,-7.3 1.6,0 0,1.3 -1.6,0 0,3.8 c 0,0.7 0.3,1 1,1 0.2,0 0.4,0 0.6,-0.1 l 0,1.2 c -0.1,0 -0.5,0.1 -1,0.1 -1.2,0 -2,-0.8 -2,-2.1 l 0,-4 -1.4,0 0,-1.3 0.4,0 c 0.8,0 1.1,-0.5 1.1,-1.1 l 0,-1.2 1.3,0 0,2.4 z m 5.6,7.3 -1.4,0 0,-10.9 1.4,0 0,4.5 c 0.5,-0.8 1.4,-1 2.2,-1 1.7,0 2.6,1.2 2.6,2.9 l 0,4.6 -1.4,0 0,-4.3 c 0,-1 -0.4,-1.8 -1.7,-1.8 -1.1,0 -1.6,0.8 -1.7,1.9 l 0,4.1 z m 14.6,-3.7 c 0,2.2 -1.5,3.8 -3.7,3.8 -2.2,0 -3.7,-1.6 -3.7,-3.8 0,-2.2 1.5,-3.8 3.7,-3.8 2.2,0 3.7,1.7 3.7,3.8 z m -1.5,0 c 0,-1.7 -1.1,-2.6 -2.2,-2.6 -1.1,0 -2.2,0.9 -2.2,2.6 0,1.7 1,2.6 2.2,2.6 1.2,0 2.2,-0.9 2.2,-2.6 z m 6.6,3.9 c -1.7,0 -2.7,-1.3 -2.7,-2.9 l 0,-4.5 1.4,0 0,4.3 c 0,1 0.4,1.9 1.6,1.9 1.1,0 1.7,-0.8 1.7,-1.8 l 0,-4.3 1.4,0 0,5.9 c 0,0.6 0,1.1 0.1,1.3 l -1.4,0 c 0,-0.2 -0.1,-0.6 -0.1,-0.9 -0.3,0.6 -1.2,1 -2,1 z m 8.5,-7.5 1.6,0 0,1.3 -1.6,0 0,3.8 c 0,0.7 0.3,1 1,1 0.2,0 0.4,0 0.6,-0.1 l 0,1.2 c -0.1,0 -0.5,0.1 -1,0.1 -1.2,0 -2,-0.8 -2,-2.1 l 0,-4 -1.4,0 0,-1.3 0.4,0 c 0.8,0 1.1,-0.5 1.1,-1.1 l 0,-1.2 1.3,0 0,2.4 z m 12.7,1.5 -0.6,0 c -1.2,0 -2,0.6 -2,2.2 l 0,3.6 -1.4,0 0,-7.2 1.4,0 0,1.3 c 0.5,-1.1 1.4,-1.4 2.2,-1.4 l 0.5,0 0,1.5 z m 8.4,3.7 c -0.4,1.3 -1.6,2.3 -3.2,2.3 -1.9,0 -3.6,-1.4 -3.6,-3.9 0,-2.3 1.6,-3.8 3.4,-3.8 2.2,0 3.5,1.5 3.5,3.8 l 0,0.5 -5.4,0 c 0,1.3 1,2.2 2.2,2.2 1.2,0 1.8,-0.6 2,-1.5 l 1.1,0.4 z m -1.4,-2.3 c 0,-1 -0.7,-1.8 -2,-1.8 -1.2,0 -1.9,0.9 -2,1.8 l 4,0 z m 4,4.4 0,-10.9 1.4,0 0,4.7 c 0.3,-0.6 1.2,-1.2 2.4,-1.2 2.2,0 3.3,1.7 3.3,3.8 0,2.1 -1.2,3.8 -3.4,3.8 -1.1,0 -1.9,-0.5 -2.3,-1.2 l 0,1 -1.4,0 z m 3.6,-6.2 c -1.2,0 -2.1,1 -2.1,2.5 0,1.6 0.9,2.6 2.1,2.6 1.3,0 2.1,-1 2.1,-2.6 0,-1.5 -0.8,-2.5 -2.1,-2.5 z m 7.8,2 1.9,-0.3 c 0.4,-0.1 0.6,-0.3 0.6,-0.5 0,-0.7 -0.5,-1.3 -1.6,-1.3 -1,0 -1.5,0.6 -1.6,1.5 l -1.4,-0.3 c 0.2,-1.4 1.4,-2.3 3,-2.3 2.2,0 3,1.2 3,2.6 l 0,3.6 c 0,0.6 0.1,1 0.1,1.2 l -1.4,0 c 0,-0.2 -0.1,-0.5 -0.1,-1 -0.3,0.5 -1,1.2 -2.3,1.2 -1.5,0 -2.4,-1 -2.4,-2.2 0,-1.3 1,-2 2.2,-2.2 z m 2.5,1.1 0,-0.3 -2.2,0.3 c -0.6,0.1 -1.1,0.4 -1.1,1.1 0,0.5 0.4,1 1.2,1 1.2,0 2.1,-0.6 2.1,-2.1 z m 5,0.7 c 0.1,0.8 0.7,1.3 1.7,1.3 0.8,0 1.2,-0.5 1.2,-1 0,-0.4 -0.3,-0.8 -0.9,-0.9 l -1.2,-0.3 c -1.1,-0.2 -1.8,-1 -1.8,-2 0,-1.2 1.2,-2.3 2.6,-2.3 2,0 2.6,1.3 2.7,1.9 l -1.2,0.5 c -0.1,-0.4 -0.4,-1.2 -1.5,-1.2 -0.7,0 -1.2,0.5 -1.2,1 0,0.4 0.3,0.8 0.8,0.9 l 1.2,0.3 c 1.3,0.3 2,1.1 2,2.1 0,1 -0.9,2.2 -2.6,2.2 -2,0 -2.8,-1.3 -2.9,-2.1 l 1.1,-0.4 z M 430.3,0 c 0.6,0 1,0.5 1,1 0,0.6 -0.4,1 -1,1 -0.6,0 -1,-0.5 -1,-1 0,-0.6 0.4,-1 1,-1 z m -0.7,11 0,-7.2 1.4,0 0,7.2 -1.4,0 z m 6,0 -1.4,0 0,-7.2 1.4,0 0,1 c 0.5,-0.9 1.4,-1.2 2.2,-1.2 1.7,0 2.6,1.2 2.6,2.9 l 0,4.6 -1.4,0 0,-4.3 c 0,-1 -0.4,-1.8 -1.7,-1.8 -1.1,0 -1.7,0.9 -1.7,2 l 0,4 z m 8.6,0 c 0.1,1 0.9,1.8 2,1.8 1.5,0 2.2,-0.8 2.2,-2.3 l 0,-1 c -0.3,0.7 -1.1,1.2 -2.2,1.2 -1.9,0 -3.3,-1.5 -3.3,-3.5 0,-1.9 1.3,-3.5 3.3,-3.5 1.1,0 1.9,0.4 2.2,1.1 l 0,-1 1.4,0 0,6.7 c 0,1.8 -0.9,3.6 -3.6,3.6 -1.8,0 -3.1,-1.1 -3.3,-2.7 l 1.3,-0.4 z m 4.2,-3.9 c 0,-1.4 -0.8,-2.3 -2.1,-2.3 -1.2,0 -2.1,0.9 -2.1,2.3 0,1.4 0.8,2.3 2.1,2.3 1.3,0 2.1,-0.9 2.1,-2.3 z"
     id="path56"
     inkscape:connector-curvature="0"
     style="fill:#404040" />
  <path
     class="st6"
     d="m 467.12915,226.56433 150.26483,0"
     id="path68-3"
     inkscape:connector-curvature="0"
     style="fill:#b3e3ff;stroke:#404040;stroke-width:3.76066113;stroke-miterlimit:10" />
  <path
     class="st14"
     d="m 213,267.9 c 0,22.6 -18.4,41 -41,41 m 41,-41 c 0,-22.6 18.4,-41 41,-41 l 214.4,0"
     id="path58"
     inkscape:connector-curvature="0"
     style="fill:none;stroke:#404040;stroke-width:4;stroke-miterlimit:10" />
  <circle
     class="st15"
     cx="297.29999"
     cy="226.90005"
     r="21"
     id="circle60"
     style="fill:#4ed1a1;stroke:#404040;stroke-width:4;stroke-miterlimit:10" />
  <circle
     class="st15"
     cx="393.29999"
     cy="226.90005"
     r="21"
     id="circle62"
     style="fill:#4ed1a1;stroke:#404040;stroke-width:4;stroke-miterlimit:10" />
  <circle
     class="st15"
     cx="489.30002"
     cy="226.90005"
     r="21"
     id="circle64"
     style="fill:#4ed1a1;stroke:#404040;stroke-width:4;stroke-miterlimit:10" />
  <circle
     class="st15"
     cx="393.29999"
     cy="226.90005"
     r="21"
     id="circle66"
     style="fill:#4ed1a1;stroke:#404040;stroke-width:4;stroke-miterlimit:10" />
  <path
     class="st6"
     d="M 2.0000015,308.9 172,308.9"
     id="path68"
     inkscape:connector-curvature="0"
     style="fill:#b3e3ff;stroke:#404040;stroke-width:4;stroke-miterlimit:10" />
  <circle
     class="st8"
     cx="23"
     cy="308.90005"
     r="21"
     id="circle70"
     style="fill:#ffffff;stroke:#404040;stroke-width:4;stroke-miterlimit:10" />
  <circle
     class="st8"
     cx="119.00001"
     cy="308.90005"
     r="21"
     id="circle72"
     style="fill:#ffffff;stroke:#404040;stroke-width:4;stroke-miterlimit:10" />
  <circle
     class="st6"
     cx="296.39999"
     cy="308.90005"
     r="21"
     id="circle78"
     style="fill:#b3e3ff;stroke:#404040;stroke-width:4;stroke-miterlimit:10" />
  <path
     class="st14"
     d="m 574.75113,267.64066 c 0,-22.6 18.4,-41 41,-41 m -41,41 c 0,22.6 -18.4,41 -41,41 l -214.4,0"
     id="path58-7"
     inkscape:connector-curvature="0"
     style="fill:none;stroke:#404040;stroke-width:4;stroke-miterlimit:10" />
  <circle
     class="st16"
     cx="392.39999"
     cy="308.90005"
     r="21"
     id="circle80"
     style="fill:#b3e3ff;stroke:#404040;stroke-width:4;stroke-linejoin:round;stroke-miterlimit:10" />
  <path
     class="st6"
     d="m 140.63613,308.91976 170,0"
     id="path68-5"
     inkscape:connector-curvature="0"
     style="fill:#b3e3ff;stroke:#404040;stroke-width:4;stroke-miterlimit:10" />
  <circle
     class="st16"
     cx="296.39999"
     cy="308.90005"
     r="21"
     id="circle84"
     style="fill:#b3e3ff;stroke:#404040;stroke-width:4;stroke-linejoin:round;stroke-miterlimit:10" />
  <path
     class="st5"
     d="m 593.3,85.9 100,0 0,50 -100,0 z"
     id="path86"
     inkscape:connector-curvature="0"
     style="fill:#4ed1a1;stroke:#404040;stroke-width:4;stroke-linecap:round;stroke-linejoin:round;stroke-miterlimit:10" />
  <path
     class="st9"
     d="m 616.5,116.9 0,-10.6 6.5,0 0,1.4 -5,0 0,3.4 4.5,0 0,1.4 -4.5,0 0,4.5 -1.5,0 z m 14.6,-2 c -0.4,1.3 -1.6,2.3 -3.2,2.3 -1.9,0 -3.6,-1.4 -3.6,-3.9 0,-2.3 1.6,-3.8 3.4,-3.8 2.2,0 3.5,1.5 3.5,3.8 l 0,0.5 -5.4,0 c 0,1.3 1,2.2 2.2,2.2 1.2,0 1.8,-0.6 2,-1.5 l 1.1,0.4 z m -1.4,-2.3 c 0,-1 -0.7,-1.8 -2,-1.8 -1.2,0 -1.9,0.9 -2,1.8 l 4,0 z m 5.8,0.2 1.9,-0.3 c 0.4,-0.1 0.6,-0.3 0.6,-0.5 0,-0.7 -0.5,-1.3 -1.6,-1.3 -1,0 -1.5,0.6 -1.6,1.5 l -1.4,-0.3 c 0.2,-1.4 1.4,-2.3 3,-2.3 2.2,0 3,1.2 3,2.6 l 0,3.6 c 0,0.6 0.1,1 0.1,1.2 l -1.4,0 c 0,-0.2 -0.1,-0.4 -0.1,-1 -0.3,0.5 -1,1.2 -2.3,1.2 -1.5,0 -2.4,-1 -2.4,-2.2 0,-1.3 0.9,-2 2.2,-2.2 z m 2.5,1 0,-0.3 -2.2,0.3 c -0.6,0.1 -1.1,0.4 -1.1,1.1 0,0.5 0.4,1.1 1.2,1.1 1.2,0 2.1,-0.6 2.1,-2.2 z m 6.2,-4.1 1.6,0 0,1.3 -1.6,0 0,3.8 c 0,0.7 0.3,1 1,1 0.2,0 0.4,0 0.6,-0.1 l 0,1.2 c -0.1,0 -0.5,0.1 -1,0.1 -1.2,0 -2,-0.8 -2,-2.1 l 0,-4 -1.4,0 0,-1.3 0.4,0 c 0.8,0 1.1,-0.5 1.1,-1.1 l 0,-1.2 1.3,0 0,2.4 z m 6.8,7.4 c -1.7,0 -2.7,-1.3 -2.7,-2.9 l 0,-4.5 1.4,0 0,4.3 c 0,1 0.4,1.9 1.6,1.9 1.1,0 1.7,-0.8 1.7,-1.8 l 0,-4.4 1.4,0 0,5.9 c 0,0.6 0,1.1 0.1,1.3 l -1.4,0 c 0,-0.2 -0.1,-0.6 -0.1,-0.9 -0.2,0.8 -1.1,1.1 -2,1.1 z m 10.7,-6 -0.6,0 c -1.2,0 -2,0.6 -2,2.2 l 0,3.6 -1.4,0 0,-7.2 1.4,0 0,1.3 c 0.5,-1.1 1.4,-1.4 2.2,-1.4 l 0.5,0 0,1.5 z m 8.4,3.8 c -0.4,1.3 -1.6,2.3 -3.2,2.3 -1.9,0 -3.6,-1.4 -3.6,-3.9 0,-2.3 1.6,-3.8 3.4,-3.8 2.2,0 3.5,1.5 3.5,3.8 l 0,0.5 -5.4,0 c 0,1.3 1,2.2 2.2,2.2 1.2,0 1.8,-0.6 2,-1.5 l 1.1,0.4 z m -1.4,-2.3 c 0,-1 -0.7,-1.8 -2,-1.8 -1.2,0 -1.9,0.9 -2,1.8 l 4,0 z"
     id="path88"
     inkscape:connector-curvature="0"
     style="fill:#404040" />
  <path
     class="st11"
     d="m 643.3,181.7 0,-23.5 M 654.2,173 643.3,183.9 632.5,173"
     id="path90"
     inkscape:connector-curvature="0"
     style="fill:none;stroke:#404040;stroke-width:4;stroke-linecap:round;stroke-linejoin:round;stroke-miterlimit:10" />
  <path
     class="st16"
     d="m 346.49353,373.28574 100,0 0,50 -100,0 z"
     id="path92"
     inkscape:connector-curvature="0"
     style="fill:#b3e3ff;stroke:#404040;stroke-width:4;stroke-linejoin:round;stroke-miterlimit:10" />
  <path
     class="st9"
     d="m 380.39805,400.09928 0,-8.3 -3.6,8.3 -1.3,0 -3.6,-8.3 0,8.3 -1.5,0 0,-10.6 2,0 3.7,8.7 3.8,-8.7 2,0 0,10.6 -1.5,0 z m 6.5,-4.2 1.9,-0.3 c 0.4,-0.1 0.6,-0.3 0.6,-0.5 0,-0.7 -0.5,-1.3 -1.6,-1.3 -1,0 -1.5,0.6 -1.6,1.5 l -1.4,-0.3 c 0.2,-1.4 1.4,-2.3 3,-2.3 2.2,0 3,1.2 3,2.6 l 0,3.6 c 0,0.6 0.1,1 0.1,1.2 l -1.4,0 c 0,-0.2 -0.1,-0.5 -0.1,-1 -0.3,0.5 -1,1.2 -2.3,1.2 -1.5,0 -2.4,-1 -2.4,-2.2 0,-1.3 0.9,-2 2.2,-2.2 z m 2.5,1.1 0,-0.3 -2.2,0.3 c -0.6,0.1 -1.1,0.4 -1.1,1.1 0,0.5 0.4,1 1.2,1 1.1,0 2.1,-0.6 2.1,-2.1 z m 4.9,0.7 c 0.1,0.8 0.7,1.3 1.7,1.3 0.8,0 1.2,-0.4 1.2,-1 0,-0.4 -0.3,-0.8 -0.9,-0.9 l -1.2,-0.3 c -1.1,-0.2 -1.8,-1 -1.8,-2 0,-1.2 1.2,-2.3 2.6,-2.3 2,0 2.6,1.3 2.7,1.9 l -1.2,0.5 c -0.1,-0.4 -0.4,-1.2 -1.5,-1.2 -0.7,0 -1.2,0.5 -1.2,1 0,0.4 0.3,0.8 0.8,0.9 l 1.2,0.3 c 1.3,0.3 2,1.1 2,2.1 0,1 -0.9,2.2 -2.6,2.2 -2,0 -2.8,-1.3 -2.9,-2.1 l 1.1,-0.4 z m 8.8,-4.9 1.6,0 0,1.3 -1.6,0 0,3.8 c 0,0.7 0.3,1 1,1 0.2,0 0.4,0 0.6,-0.1 l 0,1.2 c -0.1,0 -0.5,0.1 -1,0.1 -1.2,0 -2,-0.8 -2,-2.1 l 0,-4 -1.4,0 0,-1.3 0.4,0 c 0.8,0 1.1,-0.5 1.1,-1.1 l 0,-1.2 1.3,0 0,2.4 z m 10.4,5.2 c -0.4,1.3 -1.6,2.3 -3.2,2.3 -1.9,0 -3.6,-1.4 -3.6,-3.9 0,-2.3 1.6,-3.8 3.4,-3.8 2.2,0 3.5,1.5 3.5,3.8 l 0,0.5 -5.4,0 c 0,1.3 1,2.2 2.2,2.2 1.2,0 1.8,-0.6 2,-1.5 l 1.1,0.4 z m -1.4,-2.3 c 0,-1 -0.7,-1.8 -2,-1.8 -1.2,0 -1.9,0.9 -2,1.8 l 4,0 z m 8,-1.4 -0.6,0 c -1.2,0 -2,0.6 -2,2.2 l 0,3.6 -1.4,0 0,-7.2 1.4,0 0,1.3 c 0.5,-1.1 1.4,-1.4 2.2,-1.4 l 0.5,0 0,1.5 z"
     id="path94"
     inkscape:connector-curvature="0"
     style="fill:#404040" />
  <path
     class="st11"
     d="m 393.00481,342.73385 0,23.5 m -10.8,-14.8 10.8,-10.8 10.9,10.8"
     id="path96"
     inkscape:connector-curvature="0"
     style="fill:none;stroke:#404040;stroke-width:4;stroke-linecap:round;stroke-linejoin:round;stroke-miterlimit:10" />
  <circle
     class="st15"
     cx="638.92615"
     cy="227.0188"
     r="21"
     id="circle64-6"
     style="fill:#4ed1a1;stroke:#404040;stroke-width:4;stroke-miterlimit:10" />
  <path
     class="st17"
     d="m 632.11056,226.71354 13,0 m -11.1,-4.6 9.2,9.2 m 0,-9.2 -9.2,9.2 m 4.6,-11.1 0,13"
     id="path98"
     inkscape:connector-curvature="0"
     style="fill:#ffffff;stroke:#404040;stroke-width:4;stroke-linecap:round;stroke-linejoin:round;stroke-miterlimit:10" />
</svg>
